<svg version="1" xmlns="http://www.w3.org/2000/svg" width="182.667" height="182.667" viewBox="0 0 137.000000 137.000000"><path d="M66.4 2.6C65.1 6.2 53 35.9 35.8 77.9l-7.9 19.5 19.8 19.8L67.5 137l19.9-19.9 19.9-19.9-6.7-16.3c-3.7-9-9-22.1-11.8-29.2-2.9-7-5.4-12.7-5.8-12.7-.4 0-4 8.1-8 17.9l-7.2 18 1.8 4.6c.9 2.5 2 4.2 2.4 3.8.4-.4 2-4.1 3.5-8.1 1.6-3.9 3.1-7.2 3.4-7.2.6 0 10.6 23.8 10.6 25.3 0 .4-4.9 5.7-10.9 11.8l-10.9 11L56.5 105 45.2 93.8l10.5-25.7C61.5 54 66.5 41.6 67 40.5c.7-1.7 1-1.4 2.7 2.4l1.9 4.4 3.7-8.9c4-9.7 4.2-10.5 2.8-13.2-.5-.9-2.9-6.4-5.2-12.2C68 1 67.3-.1 66.4 2.6z"/></svg>