<svg xmlns="http://www.w3.org/2000/svg" viewBox="0 0 81.704 81.704">
  <defs><style>.cls-modal-color-check {fill: #22aaf1;}</style></defs>
  <g><path data-name="Path 4625" class="cls-modal-color-check" d="M40.852,0A40.852,40.852,0,1,0,81.7,40.852,40.85,40.85,0,0,0,40.852,0Zm0,76.6A35.745,35.745,0,1,1,76.6,40.852,35.745,35.745,0,0,1,40.852,76.6Z"/>
    <path data-name="Path 4626" class="cls-modal-color-check" d="M125.894,122.259,99.626,148.292,88.7,137.578a2.594,2.594,0,0,0-3.646,0,2.532,2.532,0,0,0,0,3.61L97.813,153.7a2.642,2.642,0,0,0,3.646,0l28.083-27.828a2.537,2.537,0,0,0,0-3.61A2.6,2.6,0,0,0,125.894,122.259Z" transform="translate(-66.403 -95.723)"/></g>
</svg>
