<svg xmlns="http://www.w3.org/2000/svg" xmlns:xlink="http://www.w3.org/1999/xlink" viewBox="0 0 28.033 29.532"><defs><style>.a{fill:#fff;}.b{clip-path:url(#a);}</style><clipPath id="a"><rect class="a" width="9.156" height="5.309" transform="translate(0 6.933) rotate(-49.217)"/></clipPath></defs><g transform="translate(-0.005 -0.442)"><path class="a" d="M29.588,38.612a.533.533,0,0,0-.532.532,12.826,12.826,0,1,1-4.033-9.336h.89V29.2a13.839,13.839,0,1,0,4.206,9.94A.532.532,0,0,0,29.588,38.612Z" transform="translate(-2.24 -23.182)"/><path class="a" d="M27.348,36.177a.7.7,0,0,0-.7.7A12.667,12.667,0,0,1,14,49.519h-.007A12.651,12.651,0,0,1,14,24.216h.007a12.73,12.73,0,0,1,8.538,3.322h.485a12.944,12.944,0,0,0-9.017-3.655h-.007a12.984,12.984,0,0,0-.013,25.967H14A13,13,0,0,0,26.982,36.874a.365.365,0,1,1,.731,0,13.785,13.785,0,0,1-4.086,9.748,13.6,13.6,0,0,1-9.6,3.934h-.113a13.688,13.688,0,1,1,9.768-23.4v-.465a14.025,14.025,0,1,0-9.774,24.193h.113a14.017,14.017,0,0,0,14.02-14.007A.689.689,0,0,0,27.348,36.177Z" transform="translate(0 -20.913)"/><g transform="translate(5.972 7.19)"><path class="a" d="M107.994,116.327l-2.027-2.027a1.436,1.436,0,0,0-2.027,0l-.924.924a1.083,1.083,0,0,1-1.535,0l-4-4a1.083,1.083,0,0,1,0-1.535l.924-.924a1.43,1.43,0,0,0,0-2.027l-2.027-2.02a1.436,1.436,0,0,0-2.027,0c-.419.412-.551.545-.738.731a5.173,5.173,0,0,0,0,7.316l6.332,6.339a5.173,5.173,0,0,0,7.316,0l.738-.738A1.458,1.458,0,0,0,107.994,116.327Zm-2.7-1.349L107.316,117a.481.481,0,0,1,0,.678l-.339.339-2.7-2.7.339-.339A.481.481,0,0,1,105.289,114.978Zm-9.595-9.588,2.027,2.02a.481.481,0,0,1,0,.678l-.339.339-2.7-2.7.339-.332A.473.473,0,0,1,95.695,105.39Zm4.924,13.03-6.332-6.339a4.2,4.2,0,0,1-.266-5.674l2.7,2.7a2.038,2.038,0,0,0,.086,2.791l3.993,4h0a2.038,2.038,0,0,0,2.791.086l2.7,2.7A4.189,4.189,0,0,1,100.618,118.42Z" transform="translate(-91.947 -104.147)"/><path class="a" d="M101.448,118.611h0a5.261,5.261,0,0,1-3.761-1.561l-6.332-6.339a5.326,5.326,0,0,1,0-7.522l.738-.731A1.557,1.557,0,0,1,93.209,102h0a1.563,1.563,0,0,1,1.116.465l2.027,2.02a1.58,1.58,0,0,1,0,2.239l-.924.924a.942.942,0,0,0,0,1.329l4,4a.942.942,0,0,0,1.329,0l.924-.924a1.584,1.584,0,0,1,2.239,0l2.027,2.027a1.572,1.572,0,0,1,0,2.233l-.738.738A5.261,5.261,0,0,1,101.448,118.611Zm-8.239-16.319a1.293,1.293,0,0,0-.91.372l-.738.731a5.037,5.037,0,0,0,0,7.11l6.332,6.339a5.021,5.021,0,0,0,7.11,0l.738-.738a1.283,1.283,0,0,0,0-1.821l-2.027-2.027a1.283,1.283,0,0,0-1.821,0l-.924.924a1.243,1.243,0,0,1-1.748,0l-4-4a1.243,1.243,0,0,1,0-1.748l.924-.924a1.283,1.283,0,0,0,0-1.821l-2.027-2.02a1.26,1.26,0,0,0-.91-.379Zm8.239,15.369a4.333,4.333,0,0,1-3.083-1.289h0l-6.332-6.332a4.347,4.347,0,0,1-.272-5.874l.1-.126,2.9,2.9-.093.106a1.9,1.9,0,0,0,.08,2.591l4,4a1.893,1.893,0,0,0,2.591.08l.106-.093,2.9,2.9-.126.1A4.215,4.215,0,0,1,101.448,117.661Zm-2.877-1.5a4.037,4.037,0,0,0,5.349.352l-2.485-2.485a2.192,2.192,0,0,1-2.89-.186l-4-4a2.2,2.2,0,0,1-.186-2.89l-2.485-2.485a4.051,4.051,0,0,0,.352,5.349l6.346,6.346Zm6.259-.086-2.91-2.91.439-.439a.622.622,0,0,1,.884,0l2.027,2.027a.622.622,0,0,1,0,.884Zm-2.5-2.91,2.5,2.5.233-.233a.341.341,0,0,0,0-.472l-2.027-2.027a.341.341,0,0,0-.472,0Zm-7.09-6.684-2.91-2.91.439-.439a.622.622,0,0,1,.884,0l2.027,2.02a.622.622,0,0,1,0,.884Zm-2.5-2.91,2.5,2.5.233-.233a.341.341,0,0,0,0-.472l-2.027-2.02a.335.335,0,0,0-.472,0Z" transform="translate(-89.8 -102)"/></g><g transform="translate(17.541 0.442)"><g transform="translate(0 0)"><g class="b"><path class="a" d="M274.487,11.178l-5.528.405a.64.64,0,0,1-.093-1.276l4.89-.359-.359-4.89a.64.64,0,1,1,1.276-.093l.405,5.528a.637.637,0,0,1-.591.684Zm0,0" transform="translate(-267.983 -4.111)"/></g></g></g></g></svg>