<svg xmlns="http://www.w3.org/2000/svg" viewBox="0 0 54.58 37.21"><defs><style>.a{fill:#48c1fe;}</style></defs><path class="a" d="M44.622,645.717a5.04,5.04,0,0,0-3.556,1.467,4.938,4.938,0,0,0,0,7.068,5.059,5.059,0,0,0,3.556,1.467,5,5,0,0,0,0-10Zm0,7.78a2.779,2.779,0,1,1,0-5.557,2.779,2.779,0,0,1,0,5.557Zm1.289-24.44a1.08,1.08,0,0,0-.745-.289h-5.7a1.115,1.115,0,0,0-1.111,1.111v9.113a1.115,1.115,0,0,0,1.111,1.111h9.047a1.115,1.115,0,0,0,1.111-1.111v-6.1a1.112,1.112,0,0,0-.367-.822Zm1.489,8.825H40.577v-6.9h4.157l2.667,2.4Zm-29.919,7.835a5.04,5.04,0,0,0-3.556,1.467,4.938,4.938,0,0,0,0,7.068,5.059,5.059,0,0,0,3.556,1.467,5,5,0,0,0,0-10Zm0,7.78a2.779,2.779,0,1,1,0-5.557,2.779,2.779,0,0,1,0,5.557Zm-7.413-6.413H7.835v-2.956a1.111,1.111,0,0,0-2.223,0V648.2a1.115,1.115,0,0,0,1.111,1.111h3.345a1.111,1.111,0,1,0,0-2.223Zm5.635-6.057a1.115,1.115,0,0,0-1.111-1.111H1.111a1.111,1.111,0,1,0,0,2.223H14.593A1.108,1.108,0,0,0,15.7,641.027ZM3.368,637.015l13.481.078a1.122,1.122,0,0,0,1.123-1.1,1.1,1.1,0,0,0-1.1-1.122L3.39,634.792H3.379a1.111,1.111,0,0,0-.011,2.223Zm2.267-5.046H19.116a1.111,1.111,0,1,0,0-2.223H5.635a1.111,1.111,0,1,0,0,2.223Zm48.535-1.5h0l-7.958-6.591a1.1,1.1,0,0,0-.711-.256H36.143v-4a1.115,1.115,0,0,0-1.111-1.111H6.724a1.115,1.115,0,0,0-1.111,1.111v8.135a1.111,1.111,0,1,0,2.223,0v-7.024h26.1v26.351H24.817a1.111,1.111,0,1,0,0,2.223h13.57a1.111,1.111,0,1,0,0-2.223H36.154V625.845h8.958l7.246,6-.078,15.215H51.124a1.111,1.111,0,1,0,0,2.223H53.38a1.105,1.105,0,0,0,1.111-1.1l.089-16.849A1.174,1.174,0,0,0,54.169,630.469Z" transform="translate(0 -618.51)"/></svg>