<svg xmlns="http://www.w3.org/2000/svg" viewBox="0 0 62.3 46.671">
  <defs>
    <style>
      .cls-1 {
        fill: none;
      }

      .cls-2 {
        fill: #237be5;
      }
    </style>
  </defs>
  <g id="Group_312" data-name="Group 312" transform="translate(-0.027)">
    <path id="Path_1495" data-name="Path 1495" class="cls-1" d="M21.1,50.9" transform="translate(-11.524 -27.836)"/>
    <path id="Path_1496" data-name="Path 1496" class="cls-2" d="M25.98,9.759h-2.9a.68.68,0,0,1,0-1.359h2.9a.68.68,0,1,1,0,1.359Z" transform="translate(-12.235 -4.594)"/>
    <path id="Path_1497" data-name="Path 1497" class="cls-2" d="M25.98,91.659h-2.9a.68.68,0,0,1,0-1.359h2.9a.68.68,0,1,1,0,1.359Z" transform="translate(-12.235 -49.383)"/>
    <path id="Path_1498" data-name="Path 1498" class="cls-2" d="M19.472,46.87c-.861,0-1.722-.725-2.447-6.027A108.647,108.647,0,0,1,16.3,27.658a108.647,108.647,0,0,1,.725-13.186C17.75,9.125,18.611,8.4,19.472,8.4V9.759a.2.2,0,0,0,.136-.045c-.816.634-1.948,7.386-1.948,17.9s1.178,17.264,1.948,17.9a.456.456,0,0,0-.136-.045Z" transform="translate(-8.899 -4.594)"/>
    <path id="Path_1499" data-name="Path 1499" class="cls-2" d="M8.4,47.8H2.416a.607.607,0,0,1-.589-.362c-.181-.317-3.987-7.658.045-13.594,3.58-5.211,0-12.1-.045-12.144a.884.884,0,0,1,0-.68.615.615,0,0,1,.589-.317H8.4a.68.68,0,0,1,0,1.359H3.5c.952,2.266,2.719,7.884-.5,12.6-3.127,4.577-.816,10.331-.136,11.826H8.443A.659.659,0,1,1,8.4,47.8Z" transform="translate(0 -11.32)"/>
    <path id="Path_1500" data-name="Path 1500" class="cls-2" d="M119.676,48.692h-9.7a.68.68,0,1,1,0-1.359h8.609c-.952-2.175-2.673-7.476.544-11.872,3.081-4.259.816-9.7.136-11.1h-8.745a.68.68,0,0,1,0-1.359h9.153a.707.707,0,0,1,.589.362c.181.272,4.033,7.3-.045,12.914-3.534,4.894,0,11.373.045,11.419a.617.617,0,0,1,0,.68A.775.775,0,0,1,119.676,48.692Z" transform="translate(-59.759 -12.578)"/>
    <path id="Path_1501" data-name="Path 1501" class="cls-2" d="M51.937,46.671c-3.987,0-5.437-13.956-5.437-23.336S47.95,0,51.937,0s5.437,13.956,5.437,23.336S55.925,46.671,51.937,46.671Zm0-45.312c-1.677,0-4.078,8.564-4.078,21.976s2.4,21.976,4.078,21.976,4.078-8.564,4.078-21.976S53.614,1.359,51.937,1.359Z" transform="translate(-25.415)"/>
    <path id="Path_1502" data-name="Path 1502" class="cls-2" d="M55.992,48.65c-.816,0-1.45-.77-1.948-4.441a76.8,76.8,0,0,1-.544-9.334,68.6,68.6,0,0,1,.544-9.334c.5-3.67,1.133-4.441,1.948-4.441s1.45.77,1.948,4.441a76.8,76.8,0,0,1,.544,9.334,76.8,76.8,0,0,1-.544,9.334C57.442,47.879,56.808,48.65,55.992,48.65Zm0-25.783c-.5,1.45-1.087,5.755-1.087,12.008s.589,10.6,1.087,12.008c.5-1.45,1.087-5.755,1.087-12.008S56.491,24.272,55.992,22.867Z" transform="translate(-29.243 -11.539)"/>
    <rect id="Rectangle_92" data-name="Rectangle 92" class="cls-2" width="9.833" height="1.359" transform="translate(16.916 45.312)"/>
    <rect id="Rectangle_93" data-name="Rectangle 93" class="cls-2" width="9.833" height="1.359" transform="translate(16.916)"/>
    <path id="Path_1503" data-name="Path 1503" class="cls-2" d="M31.336,46.671c-3.9,0-5.936-11.736-5.936-23.336S27.439,0,31.336,0V1.359c-1.9,0-4.577,8.383-4.577,21.976s2.628,21.976,4.577,21.976Z" transform="translate(-13.876)"/>
    <path id="Path_1504" data-name="Path 1504" class="cls-2" d="M102.937,47.684c-3.58,0-5.437-9.289-5.437-18.442S99.358,10.8,102.937,10.8c2.13,0,3.262,1.631,4.123,6.072l-1.314.272c-.906-4.577-1.812-4.984-2.764-4.984-1.722,0-4.078,6.48-4.078,17.083s2.356,17.083,4.078,17.083c.952,0,1.9,0,2.809-5.12l1.359.227C106.291,46.1,105.248,47.684,102.937,47.684Z" transform="translate(-53.306 -5.906)"/>
    <rect id="Rectangle_94" data-name="Rectangle 94" class="cls-2" width="6.887" height="1.359" transform="translate(43.288 40.418)"/>
    <rect id="Rectangle_95" data-name="Rectangle 95" class="cls-2" width="6.887" height="1.359" transform="translate(43.288 4.894)"/>
    <rect id="Rectangle_96" data-name="Rectangle 96" class="cls-2" width="3.625" height="1.359" transform="translate(36.355 10.467)"/>
    <rect id="Rectangle_97" data-name="Rectangle 97" class="cls-2" width="3.625" height="1.359" transform="translate(36.355 34.754)"/>
    <path id="Path_1505" data-name="Path 1505" class="cls-2" d="M89.547,47.684c-3.489,0-5.347-9.289-5.347-18.442S86.012,10.8,89.547,10.8v1.359c-1.677,0-3.987,6.48-3.987,17.083s2.311,17.083,3.987,17.083Z" transform="translate(-46.033 -5.906)"/>
    <path id="Path_1506" data-name="Path 1506" class="cls-2" d="M77.8,48.737c-2.809,0-2.9-11.555-2.9-12.869S74.991,23,77.8,23v1.359c.045,0,.091,0,.091-.045-.544.362-1.631,4.259-1.631,11.555s1.087,11.192,1.631,11.555a.158.158,0,0,0-.091-.045Z" transform="translate(-40.947 -12.578)"/>
    <path id="Path_1507" data-name="Path 1507" class="cls-2" d="M108.42,48.737c-.77,0-1.314-.68-1.767-4.169a68.7,68.7,0,0,1-.453-8.7,78.359,78.359,0,0,1,.453-8.7c.453-3.489,1-4.169,1.767-4.169v1.359a.574.574,0,0,0,.272-.091c-.5.544-1.178,4.894-1.178,11.6s.68,11.056,1.178,11.6a.383.383,0,0,0-.272-.091Z" transform="translate(-58.064 -12.578)"/>
  </g>
</svg>
