<svg xmlns="http://www.w3.org/2000/svg" viewBox="0 0 57.099 26.897"><defs><style>.a{fill:#48c1fe;}</style></defs><g transform="translate(0 -107.305)"><path class="a" d="M43.664,107.3c-6.189,0-12.961,8.876-15.124,11.957-2.184-3.106-8.934-11.929-15.1-11.929a13.435,13.435,0,0,0,0,26.87c6.189,0,12.961-8.876,15.124-11.957,2.184,3.106,8.934,11.929,15.1,11.929a13.435,13.435,0,1,0,0-26.87ZM13.435,132.523a11.756,11.756,0,0,1,0-23.511c5.7,0,12.579,9.536,14.1,11.756C26.014,122.987,19.136,132.523,13.435,132.523Zm30.229-.028c-5.7,0-12.579-9.536-14.1-11.756,1.523-2.219,8.4-11.756,14.1-11.756a11.756,11.756,0,1,1,0,23.511Z"/></g></svg>