<svg xmlns="http://www.w3.org/2000/svg" viewBox="0 0 19.71 15"><defs><style>.a{fill:#fff;}</style></defs><g transform="translate(0 0)"><path class="a" d="M17.3,57.75H2.41A2.412,2.412,0,0,0,0,60.16V70.34a2.412,2.412,0,0,0,2.41,2.41H17.3a2.412,2.412,0,0,0,2.41-2.41V60.164A2.41,2.41,0,0,0,17.3,57.75Zm1.309,12.59A1.311,1.311,0,0,1,17.3,71.649H2.41A1.311,1.311,0,0,1,1.1,70.34V60.164A1.311,1.311,0,0,1,2.41,58.855H17.3a1.311,1.311,0,0,1,1.309,1.309V70.34Z" transform="translate(0 -57.75)"/><path class="a" d="M65.909,114.19l4.821-4.323a.552.552,0,0,0-.738-.82l-6.648,5.967-1.3-1.158s-.008-.008-.008-.012a.814.814,0,0,0-.09-.077l-5.277-4.723a.552.552,0,1,0-.734.824l4.878,4.36-4.857,4.547a.553.553,0,0,0-.024.779.563.563,0,0,0,.4.175.552.552,0,0,0,.375-.147l4.931-4.613,1.338,1.195a.549.549,0,0,0,.734,0l1.374-1.232,4.9,4.657a.552.552,0,0,0,.779-.02.553.553,0,0,0-.02-.779Z" transform="translate(-53.479 -106.816)"/></g></svg>