<svg xmlns="http://www.w3.org/2000/svg" viewBox="0 0 14.76 18.607"><defs><style>.a{fill:#39f;}</style></defs><g transform="translate(3.458 3.437)"><g transform="translate(0.018 0.018)"><path class="a" d="M98.246,98.072H106.6a.388.388,0,0,0,0-.772H98.246a.388.388,0,0,0,0,.772Z" transform="translate(-97.846 -97.246)"/><path class="a" d="M105.152,96.68H96.8a.442.442,0,0,1,0-.88h8.352a.424.424,0,0,1,.4.44A.428.428,0,0,1,105.152,96.68ZM96.8,95.908a.313.313,0,0,0-.292.332.318.318,0,0,0,.292.332h8.352a.334.334,0,0,0,0-.664Z" transform="translate(-96.4 -95.8)"/></g><path class="a" d="M106.116,97.608H97.764a.406.406,0,0,1,0-.808h8.352a.406.406,0,0,1,0,.808Zm-8.352-.768a.37.37,0,0,0,0,.736h8.352a.37.37,0,0,0,0-.736Z" transform="translate(-97.346 -96.746)"/><path class="a" d="M104.67,96.216H96.318a.46.46,0,0,1,0-.916h8.352a.46.46,0,0,1,0,.916Zm-8.352-.772a.317.317,0,0,0,0,.627h8.352a.316.316,0,0,0,0-.627Z" transform="translate(-95.9 -95.3)"/></g><g transform="translate(5.546 4.976)"><g transform="translate(0.018 0.018)"><path class="a" d="M160.322,140h-4.176a.388.388,0,0,0,0,.772h4.176a.388.388,0,0,0,0-.772Z" transform="translate(-155.746 -139.946)"/><path class="a" d="M158.876,139.38H154.7a.442.442,0,0,1,0-.88h4.176a.424.424,0,0,1,.4.44A.428.428,0,0,1,158.876,139.38Zm-4.176-.772a.334.334,0,0,0,0,.664h4.176a.334.334,0,0,0,0-.664Z" transform="translate(-154.3 -138.5)"/></g><path class="a" d="M159.84,140.308h-4.176a.406.406,0,0,1,0-.808h4.176a.388.388,0,0,1,.368.4A.392.392,0,0,1,159.84,140.308Zm-4.176-.772a.37.37,0,0,0,0,.736h4.176a.37.37,0,0,0,0-.736Z" transform="translate(-155.246 -139.446)"/><path class="a" d="M158.394,138.916h-4.176a.46.46,0,0,1,0-.916h4.176a.46.46,0,0,1,0,.916Zm-4.176-.772a.317.317,0,0,0,0,.627h4.176a.316.316,0,0,0,0-.627Z" transform="translate(-153.8 -138)"/></g><g transform="translate(0.018 0.018)"><path class="a" d="M16.615,18.923V2.386A.368.368,0,0,0,16.269,2H2.35A.368.368,0,0,0,2,2.386V18.927H2v1.154a.368.368,0,0,0,.35.386H16.269a.388.388,0,0,0,0-.772v-.386A.368.368,0,0,0,16.615,18.923Zm-.7-.382H4.088V2.768H15.919ZM3.392,2.768V18.537H2.7V17.383h0V2.768ZM15.573,19.691H2.7v-.382H15.573v.382Z" transform="translate(-1.946 -1.946)"/><path class="a" d="M14.823,19.071H.9a.424.424,0,0,1-.4-.44V.94A.424.424,0,0,1,.9.5H14.823a.423.423,0,0,1,.4.44V17.481a.428.428,0,0,1-.346.433V18.2a.429.429,0,0,1,.346.436A.422.422,0,0,1,14.823,19.071ZM.9.608a.316.316,0,0,0-.3.332V18.635a.318.318,0,0,0,.3.332H14.823a.334.334,0,0,0,0-.664h-.054v-.49h.054a.313.313,0,0,0,.292-.332V.94a.313.313,0,0,0-.292-.332ZM14.181,18.3H1.2v-.49H14.181ZM1.3,18.191H14.073v-.274H1.3Zm13.223-1.042H2.588V1.268h11.94ZM2.7,17.041H14.419V1.376H2.7Zm-.7.108H1.2V1.268H2Zm-.7-.108h.588V1.376H1.3Z" transform="translate(-0.5 -0.5)"/></g><path class="a" d="M15.787,20H1.868a.388.388,0,0,1-.368-.4V1.9a.388.388,0,0,1,.368-.4H15.787a.385.385,0,0,1,.364.4V18.445a.384.384,0,0,1-.346.4v.35a.405.405,0,0,1-.018.8ZM1.868,1.536a.354.354,0,0,0-.332.368V19.6a.351.351,0,0,0,.332.368H15.787a.37.37,0,0,0,0-.736h-.018v-.418h.018a.351.351,0,0,0,.328-.368V1.9a.351.351,0,0,0-.328-.368ZM15.109,19.227H2.2v-.418H15.109ZM2.232,19.191H15.073v-.346H2.232Zm13.223-1.114H3.588V2.268H15.455ZM3.624,18.041h11.8V2.3H3.624Zm-.7.036H2.2V2.268h.732Zm-.7-.036h.66V2.3h-.66Z" transform="translate(-1.446 -1.446)"/><path class="a" d="M14.341,18.607H.422A.44.44,0,0,1,0,18.149V.458A.44.44,0,0,1,.422,0H14.341a.44.44,0,0,1,.418.458V17a.45.45,0,0,1-.346.451V17.7a.447.447,0,0,1,.346.451A.439.439,0,0,1,14.341,18.607ZM.422.144A.3.3,0,0,0,.144.458V18.153a.3.3,0,0,0,.278.314H14.341a.317.317,0,0,0,0-.627h-.072v-.53h.072A.3.3,0,0,0,14.615,17V.458a.3.3,0,0,0-.274-.314Zm13.3,17.691H.7v-.526H13.717ZM.84,17.691H13.573v-.238H.84Zm13.223-1.006H2.088V.768H14.064ZM2.232,16.541H13.919V.912H2.232Zm-.7.144H.7V.768h.84Zm-.7-.144h.552V.912H.84Z"/></svg>