<svg xmlns="http://www.w3.org/2000/svg" viewBox="0 0 16.647 19.568"><defs><style>.a{fill:#39f;}</style></defs><g transform="translate(-0.07)"><g transform="translate(0.07 0)"><path class="a" d="M84.983,10.549h.132a3.736,3.736,0,0,0,2.858-1.236c1.561-1.758,1.3-4.773,1.272-5.062A4.152,4.152,0,0,0,87.278.573,4.508,4.508,0,0,0,85.1,0h-.071A4.463,4.463,0,0,0,82.85.557a4.136,4.136,0,0,0-1.991,3.694c-.03.289-.289,3.3,1.272,5.062a3.735,3.735,0,0,0,2.853,1.236Zm-3.045-6.2c0-.01.005-.025.005-.03.132-2.908,2.2-3.217,3.081-3.217h.051c1.094.025,2.954.471,3.081,3.217,0,.01,0,.025.005.03.005.03.289,2.787-1,4.236a2.64,2.64,0,0,1-2.088.866h-.041a2.662,2.662,0,0,1-2.082-.866c-1.287-1.439-1.013-4.21-1.008-4.236Zm0,0" transform="translate(-76.733 0)"/><path class="a" d="M16.716,212.527v-.01c0-.03-.005-.066-.005-.1-.025-.8-.076-2.68-1.834-3.278a.119.119,0,0,0-.041-.01,11.75,11.75,0,0,1-3.364-1.53.545.545,0,1,0-.628.892,12.667,12.667,0,0,0,3.7,1.692c.942.334,1.049,1.348,1.079,2.27a.646.646,0,0,0,.005.1,7.142,7.142,0,0,1-.086,1.251A14.905,14.905,0,0,1,8.4,215.466,14.952,14.952,0,0,1,1.247,213.8a7.142,7.142,0,0,1-.086-1.251c0-.03.005-.066.005-.1.03-.922.132-1.936,1.079-2.27a12.59,12.59,0,0,0,3.7-1.692.545.545,0,0,0-.628-.892,11.668,11.668,0,0,1-3.364,1.53.156.156,0,0,1-.041.01c-1.758.6-1.814,2.483-1.834,3.278a.646.646,0,0,1-.005.1v.01a6.067,6.067,0,0,0,.208,1.834.5.5,0,0,0,.213.253,15.342,15.342,0,0,0,7.914,1.936,15.4,15.4,0,0,0,7.914-1.936.575.575,0,0,0,.213-.253,6.977,6.977,0,0,0,.182-1.829Zm0,0" transform="translate(-0.07 -196.977)"/></g></g></svg>