<svg xmlns="http://www.w3.org/2000/svg" viewBox="0 0 15.999 16"><defs><style>.a{fill:#39f;}</style></defs><g transform="translate(-0.01 0)"><g transform="translate(0.01 0)"><g transform="translate(0 0)"><path class="a" d="M15.325,12,11.968,8.645a2.367,2.367,0,0,0-1.3-.657l1.48-1.48a3.28,3.28,0,0,0,3.538-4.642.469.469,0,0,0-.754-.129L13.852,2.811H13.19V2.149l1.075-1.075A.469.469,0,0,0,14.135.32,3.28,3.28,0,0,0,9.493,3.858L7.674,5.677,5.116,3.119l.331-.331a.469.469,0,0,0-.09-.733L2.045.067a.468.468,0,0,0-.572.07L.147,1.462a.469.469,0,0,0-.07.572L2.064,5.347a.468.468,0,0,0,.733.09l.331-.331L5.687,7.664,3.868,9.483A3.28,3.28,0,0,0,.33,14.125a.469.469,0,0,0,.754.129L2.158,13.18h.663v.663L1.746,14.917a.469.469,0,0,0,.129.754,3.28,3.28,0,0,0,4.642-3.538L8,10.653a2.368,2.368,0,0,0,.658,1.305l3.357,3.357A2.342,2.342,0,1,0,15.325,12ZM2.559,4.351,1.068,1.866l.808-.808L4.361,2.549Zm1.232.093.663-.663L7.012,6.339,6.349,7Zm1.882,7.208a.468.468,0,0,0-.121.452A2.343,2.343,0,0,1,2.958,15.03l.663-.663a.468.468,0,0,0,.137-.331V12.711a.468.468,0,0,0-.468-.468H1.964a.468.468,0,0,0-.331.137l-.663.663A2.343,2.343,0,0,1,3.9,10.449a.469.469,0,0,0,.452-.121l5.988-5.988a.468.468,0,0,0,.121-.452A2.343,2.343,0,0,1,13.053.96l-.663.663a.468.468,0,0,0-.137.331V3.279a.468.468,0,0,0,.468.468h1.325a.468.468,0,0,0,.331-.137l.663-.663a2.343,2.343,0,0,1-2.926,2.594.468.468,0,0,0-.452.121Zm8.989,3a1.408,1.408,0,0,1-1.988,0L9.318,11.3a1.406,1.406,0,0,1,1.987-1.988l3.357,3.357A1.407,1.407,0,0,1,14.662,14.652Z" transform="translate(-0.01 0)"/></g></g><g transform="translate(9.879 9.869)"><path class="a" d="M319.928,319.255l-3.311-3.31a.468.468,0,0,0-.662.662l3.31,3.31a.468.468,0,0,0,.663-.662Z" transform="translate(-315.818 -315.807)"/></g></g></svg>