<svg xmlns="http://www.w3.org/2000/svg" viewBox="0 0 18.064 18.065"><defs><style>.a{fill:#39f;}</style></defs><g transform="translate(-0.018)"><g transform="translate(0.018)"><path class="a" d="M17.616,5.685a1.59,1.59,0,0,0-2.246,0L13.778,7.279V3.085a1.577,1.577,0,0,0-.465-1.123l-1.5-1.5A1.577,1.577,0,0,0,10.694,0H1.606A1.59,1.59,0,0,0,.018,1.588v14.89a1.59,1.59,0,0,0,1.588,1.588H12.191a1.59,1.59,0,0,0,1.588-1.588V11.772l3.838-3.841A1.587,1.587,0,0,0,17.616,5.685ZM10.6,1.058a.578.578,0,0,1,.465.155l1.5,1.5a.578.578,0,0,1,.155.465H10.6ZM12.72,16.477a.53.53,0,0,1-.529.529H1.606a.53.53,0,0,1-.529-.529V1.588a.53.53,0,0,1,.529-.529H9.544V3.7a.529.529,0,0,0,.529.529H12.72v4.1L11.158,9.9l-.748.748a.529.529,0,0,0-.128.207L9.534,13.1a.529.529,0,0,0,.669.669l2.245-.748a.529.529,0,0,0,.207-.128l.064-.064Zm-1.187-5.454.748.748L12,12.058l-1.123.374.374-1.123Zm1.5,0-.748-.748,2.544-2.546.748.748Zm3.838-3.841-.546.546-.748-.748.546-.546a.529.529,0,1,1,.748.749Z" transform="translate(-0.018)"/></g><g transform="translate(2.135 5.292)"><path class="a" d="M67.957,150h-7.41a.529.529,0,1,0,0,1.059h7.41a.529.529,0,0,0,0-1.059Z" transform="translate(-60.018 -150)"/></g><g transform="translate(2.135 7.409)"><path class="a" d="M65.84,210H60.547a.529.529,0,1,0,0,1.059H65.84a.529.529,0,0,0,0-1.059Z" transform="translate(-60.018 -210)"/></g><g transform="translate(2.135 9.526)"><path class="a" d="M65.84,270H60.547a.529.529,0,1,0,0,1.059H65.84a.529.529,0,1,0,0-1.059Z" transform="translate(-60.018 -270)"/></g><g transform="translate(2.135 11.643)"><path class="a" d="M65.84,330H60.547a.529.529,0,1,0,0,1.059H65.84a.529.529,0,1,0,0-1.059Z" transform="translate(-60.018 -330)"/></g><g transform="translate(6.369 14.89)"><path class="a" d="M183.723,422h-3.176a.529.529,0,1,0,0,1.059h3.176a.529.529,0,0,0,0-1.059Z" transform="translate(-180.018 -422)"/></g></g></svg>