<svg xmlns="http://www.w3.org/2000/svg" viewBox="0 0 19.621 23.09"><defs><style>.a{fill:#39f;}</style></defs><g transform="translate(-30.433 0)"><g transform="translate(30.433 0)"><g transform="translate(0 0)"><path class="a" d="M49.988,19.214l-3.375-5.928a.951.951,0,0,0,.524-.935l-.251-2.1,1.436-1.5a.939.939,0,0,0,.023-1.254l-1.436-1.55.3-2.12a.943.943,0,0,0-.73-1L44.4,2.41,43.4.563A.9.9,0,0,0,42.235.13h-.023L40.3,1.019,38.428.107a.888.888,0,0,0-1.208.365L36.193,2.319l-2.075.365a.935.935,0,0,0-.752,1.026l.251,2.1-1.436,1.5a.939.939,0,0,0-.023,1.254l1.436,1.55-.3,2.12a.939.939,0,0,0,.593.958l-3.4,6.019a.464.464,0,0,0,0,.456.47.47,0,0,0,.388.228h3.648l1.664,2.9a.47.47,0,0,0,.388.228.441.441,0,0,0,.388-.228l3.261-5.563,3.261,5.632a.47.47,0,0,0,.388.228.441.441,0,0,0,.388-.228L45.929,19.9h3.648a.441.441,0,0,0,.388-.228A.377.377,0,0,0,49.988,19.214ZM36.6,21.654l-1.414-2.44a.47.47,0,0,0-.388-.228H31.656L34.8,13.423l1.3.228,1,1.847a.9.9,0,0,0,1.163.433h.023l.935-.433.456.8Zm1.322-6.544H37.9l-1-1.892a.851.851,0,0,0-.638-.433l-2.1-.388.3-2.1a.888.888,0,0,0-.228-.752L32.819,8l1.436-1.5a.856.856,0,0,0,.251-.752l-.251-2.075a.071.071,0,0,1,.023-.046l2.075-.365a.923.923,0,0,0,.638-.456L38.017.951l1.87.912a.872.872,0,0,0,.821,0L42.6,1h.023l1,1.892a.853.853,0,0,0,.616.433l2.075.41-.3,2.1a.888.888,0,0,0,.228.752l1.436,1.55-1.459,1.5a.856.856,0,0,0-.251.752l.251,2.1-2.052.342a.923.923,0,0,0-.638.456l-1.026,1.847-1.87-.912a.872.872,0,0,0-.821,0Zm7.752,3.876a.441.441,0,0,0-.388.228l-1.414,2.508-3.215-5.563a.367.367,0,0,0-.091-.16l-.5-.889.16-.068,1.87.912a.938.938,0,0,0,1.208-.365l1.026-1.847,1.368-.251,3.124,5.495Z" transform="translate(-30.433 0)"/><path class="a" d="M131.408,65.635a4.56,4.56,0,1,0-4.56,4.56A4.574,4.574,0,0,0,131.408,65.635Zm-4.56,3.648a3.648,3.648,0,1,1,3.648-3.648A3.659,3.659,0,0,1,126.848,69.283Z" transform="translate(-117.052 -57.594)"/></g></g></g></svg>