<svg xmlns="http://www.w3.org/2000/svg" viewBox="0 0 53.801 38.954"><defs><style>.a{fill:#48c1fe;}</style></defs><g transform="translate(0 -42.126)"><path class="a" d="M226.736,148.3V125.387a.874.874,0,0,0-1.736,0V148.3a.874.874,0,0,0,1.736,0Z" transform="translate(-198.967 -74.054)"/><path class="a" d="M52.933,45.569a24.966,24.966,0,0,1-6.541-1.441,34.929,34.929,0,0,0-10.143-2A11.243,11.243,0,0,0,28.137,45.1,9.5,9.5,0,0,0,26.9,46.563,9.5,9.5,0,0,0,25.664,45.1a11.243,11.243,0,0,0-8.112-2.971,34.928,34.928,0,0,0-10.143,2A24.97,24.97,0,0,1,.868,45.569.822.822,0,0,0,0,46.337V77.244a.822.822,0,0,0,.868.767,26.11,26.11,0,0,0,7.109-1.526,33.451,33.451,0,0,1,9.575-1.918,9.443,9.443,0,0,1,6.831,2.471.95.95,0,0,0,1.226.049A.707.707,0,0,0,25.664,76a11.243,11.243,0,0,0-8.112-2.971,34.928,34.928,0,0,0-10.143,2A31.977,31.977,0,0,1,1.736,76.43V47.066a31.729,31.729,0,0,0,6.241-1.487,33.451,33.451,0,0,1,9.575-1.918c6.7,0,8.449,4.7,8.52,4.9a.906.906,0,0,0,1.659,0c.017-.049,1.78-4.9,8.52-4.9a33.451,33.451,0,0,1,9.575,1.918,31.724,31.724,0,0,0,6.241,1.487V76.43a31.985,31.985,0,0,1-5.673-1.395,34.929,34.929,0,0,0-10.143-2A11.242,11.242,0,0,0,28.137,76a.707.707,0,0,0,.056,1.084.95.95,0,0,0,1.226-.049,9.443,9.443,0,0,1,6.831-2.471,33.451,33.451,0,0,1,9.575,1.918,26.112,26.112,0,0,0,7.109,1.526.822.822,0,0,0,.868-.767V46.337A.822.822,0,0,0,52.933,45.569Z" transform="translate(0)"/><path class="a" d="M52.933,377.661a24.968,24.968,0,0,1-6.541-1.441,34.927,34.927,0,0,0-10.143-2,11.367,11.367,0,0,0-7.844,2.721H25.4a11.368,11.368,0,0,0-7.844-2.721,34.927,34.927,0,0,0-10.143,2,24.968,24.968,0,0,1-6.541,1.441.773.773,0,1,0,0,1.535,26.11,26.11,0,0,0,7.109-1.526,33.45,33.45,0,0,1,9.575-1.918,9.443,9.443,0,0,1,6.831,2.471.923.923,0,0,0,.641.25h3.755a.923.923,0,0,0,.641-.25,9.443,9.443,0,0,1,6.831-2.471,33.451,33.451,0,0,1,9.575,1.918,26.111,26.111,0,0,0,7.109,1.526.773.773,0,1,0,0-1.535Z" transform="translate(0 -298.116)"/></g></svg>