<svg xmlns="http://www.w3.org/2000/svg" viewBox="0 0 39.103 46.671">
  <defs>
    <style>
      .cls-1 {
        fill: none;
        stroke: #237be5;
      }
    </style>
  </defs>
  <path id="Path_345" data-name="Path 345" class="cls-1" d="M37.655,0H.373A.352.352,0,0,0,0,.373V14.54a.352.352,0,0,0,.373.373H2.5v3.5a.352.352,0,0,0,.373.373H8.053v9.358H4.437a.352.352,0,0,0-.373.373v5.108A.352.352,0,0,0,4.437,34H8.053v9.358H8.09c.447,1.827,7.27,2.312,10.961,2.312s10.514-.485,10.961-2.312h.037V34h3.616a.352.352,0,0,0,.373-.373v-5.07a.352.352,0,0,0-.373-.373H30.05V18.828h5.182a.352.352,0,0,0,.373-.373V14.913H37.73a.352.352,0,0,0,.373-.373V.373A.473.473,0,0,0,37.655,0ZM13.72,14.167V.746H25.949V14.167ZM.746.746H12.974V14.167H.746Zm18.268,44.18c-6.6,0-10.215-1.156-10.215-1.752v-4.1H29.267v4.1C29.229,43.769,25.613,44.925,19.014,44.925Zm10.215-6.6H8.8V34H29.267v4.325Zm3.989-5.07H4.809V28.931H33.256v4.325Zm-3.989-5.07H8.8V18.828H29.267v9.358Zm5.555-10.1H3.244V14.913H34.822v3.169Zm2.5-3.915H26.694V.746H37.282Z" transform="translate(0.5 0.5)"/>
</svg>
