<svg xmlns="http://www.w3.org/2000/svg" viewBox="0 0 45.551 60.735">
  <defs>
    <style>
      .cls-1 {
        fill: #22aaf1;
      }
    </style>
  </defs>
  <g id="pdf" transform="translate(-64)">
    <g id="Group_439" data-name="Group 439" transform="translate(64)">
      <g id="Group_438" data-name="Group 438" transform="translate(0)">
        <path id="Path_4409" data-name="Path 4409" class="cls-1" d="M109.18,13.024,96.527.371A1.264,1.264,0,0,0,95.633,0H69.061A5.066,5.066,0,0,0,64,5.061V55.673a5.066,5.066,0,0,0,5.061,5.061H104.49a5.066,5.066,0,0,0,5.061-5.061V13.918A1.264,1.264,0,0,0,109.18,13.024ZM96.9,4.32l8.333,8.333h-5.8A2.534,2.534,0,0,1,96.9,10.123ZM107.02,55.673A2.534,2.534,0,0,1,104.49,58.2H69.061a2.534,2.534,0,0,1-2.531-2.531V5.061a2.534,2.534,0,0,1,2.531-2.531H94.367v7.592a5.066,5.066,0,0,0,5.061,5.061h7.592Z" transform="translate(-64)"/>
        <path id="Path_4410" data-name="Path 4410" class="cls-1" d="M149.635,187.566a36.681,36.681,0,0,1-3.026-2.611c-.964-.964-1.823-1.9-2.569-2.788,1.164-3.6,1.674-5.452,1.674-6.44,0-4.2-1.517-5.061-3.8-5.061-1.731,0-3.8.9-3.8,5.182,0,1.888,1.034,4.18,3.084,6.844-.5,1.531-1.091,3.3-1.753,5.287-.319.955-.665,1.84-1.031,2.658-.3.132-.587.267-.866.407-1.006.5-1.961.955-2.847,1.375-4.041,1.913-6.71,3.178-6.71,5.677,0,1.814,1.971,2.937,3.8,2.937,2.353,0,5.905-3.142,8.5-8.436a50.342,50.342,0,0,1,8.685-2.343c2.118,1.629,4.457,3.187,5.59,3.187,3.137,0,3.8-1.814,3.8-3.335,0-2.992-3.418-2.992-5.061-2.992A29.972,29.972,0,0,0,149.635,187.566ZM131.8,198.5a2,2,0,0,1-1.265-.407c0-.9,2.675-2.165,5.263-3.391l.5-.236C134.393,197.225,132.514,198.5,131.8,198.5Zm8.857-22.654c0-2.652.823-2.652,1.265-2.652.895,0,1.265,0,1.265,2.531a20.287,20.287,0,0,1-1.007,3.952A7.775,7.775,0,0,1,140.653,175.848Zm.97,13.6q.119-.33.23-.667c.47-1.409.892-2.674,1.269-3.813q.788.867,1.7,1.777c.237.237.825.771,1.609,1.439C144.869,188.524,143.21,188.945,141.623,189.448Zm14.214.659c0,.568,0,.8-1.174.812a9.327,9.327,0,0,1-2.125-1.213c.357-.04.62-.059.769-.059C155.176,189.646,155.706,189.829,155.837,190.107Z" transform="translate(-120.408 -150.421)"/>
      </g>
    </g>
  </g>
</svg>
