<svg xmlns="http://www.w3.org/2000/svg" viewBox="0 0 18.882 18.91"><defs><style>.a{fill:#fff;}</style></defs><g transform="translate(0 0)"><path class="a" d="M15.276,38.026a1.86,1.86,0,0,0-1.349-.619,1.923,1.923,0,0,0-1.365.615L11.3,39.279c-.1-.056-.208-.108-.307-.16-.144-.072-.279-.14-.4-.212a13.707,13.707,0,0,1-3.285-2.993,8.087,8.087,0,0,1-1.078-1.7c.327-.3.631-.611.926-.91.112-.112.224-.228.335-.339a1.831,1.831,0,0,0,0-2.762l-1.09-1.09c-.124-.124-.251-.251-.371-.379-.239-.247-.491-.5-.75-.742a1.889,1.889,0,0,0-1.337-.587,1.955,1.955,0,0,0-1.357.587L2.584,28,1.227,29.37a2.92,2.92,0,0,0-.866,1.856,7,7,0,0,0,.511,2.961,17.184,17.184,0,0,0,3.053,5.093,18.782,18.782,0,0,0,6.254,4.9,9.744,9.744,0,0,0,3.512,1.038c.084,0,.172.008.251.008a3.007,3.007,0,0,0,2.3-.99c0-.008.012-.012.016-.02a9.075,9.075,0,0,1,.7-.722c.172-.164.347-.335.519-.515a1.991,1.991,0,0,0,.6-1.381,1.918,1.918,0,0,0-.615-1.369Zm1.429,4.2s0,0,0,0c-.156.168-.315.319-.487.487a10.5,10.5,0,0,0-.77.8,1.924,1.924,0,0,1-1.5.635c-.06,0-.124,0-.184,0a8.656,8.656,0,0,1-3.113-.934A17.729,17.729,0,0,1,4.759,38.6a16.2,16.2,0,0,1-2.874-4.785,5.7,5.7,0,0,1-.447-2.5,1.832,1.832,0,0,1,.551-1.185L3.35,28.767a.907.907,0,0,1,.607-.283.854.854,0,0,1,.583.279l.012.012c.243.227.475.463.718.714.124.128.251.255.379.387l1.09,1.09a.762.762,0,0,1,0,1.237c-.116.116-.227.231-.343.343-.335.343-.655.663-1,.974-.008.008-.016.012-.02.02a.814.814,0,0,0-.208.906l.012.036a8.748,8.748,0,0,0,1.289,2.1l0,0a14.649,14.649,0,0,0,3.544,3.225,5.445,5.445,0,0,0,.491.267c.144.072.279.14.4.212.016.008.032.02.048.028a.865.865,0,0,0,.4.1.853.853,0,0,0,.607-.275l1.365-1.365a.9.9,0,0,1,.6-.3.813.813,0,0,1,.575.291l.008.008,2.2,2.2A.789.789,0,0,1,16.7,42.229Z" transform="translate(-0.344 -26.312)"/><path class="a" d="M245.387,86.994a5.136,5.136,0,0,1,4.183,4.183.535.535,0,0,0,.531.447.711.711,0,0,0,.092-.008.539.539,0,0,0,.443-.623,6.211,6.211,0,0,0-5.061-5.061.542.542,0,0,0-.623.439A.533.533,0,0,0,245.387,86.994Z" transform="translate(-235.182 -82.496)"/><path class="a" d="M257.735,8.342A10.227,10.227,0,0,0,249.4.008a.538.538,0,1,0-.176,1.062,9.135,9.135,0,0,1,7.447,7.447.536.536,0,0,0,.531.447.713.713,0,0,0,.092-.008A.529.529,0,0,0,257.735,8.342Z" transform="translate(-238.86 0)"/></g></svg>