<svg xmlns="http://www.w3.org/2000/svg" viewBox="0 0 19.998 20"><defs><style>.a{fill:#fff;}</style></defs><g transform="translate(-0.006)"><g transform="translate(0.006)"><path class="a" d="M15.21,57.448a1.4,1.4,0,0,0-2.118,0c-.5.491-.99.982-1.477,1.482a.292.292,0,0,1-.408.075c-.32-.175-.662-.316-.97-.508a15.363,15.363,0,0,1-3.7-3.371A8.775,8.775,0,0,1,5.205,53a.3.3,0,0,1,.075-.391c.5-.479.978-.97,1.465-1.461a1.407,1.407,0,0,0,0-2.168c-.387-.391-.774-.774-1.161-1.165s-.795-.8-1.2-1.2a1.41,1.41,0,0,0-2.118,0c-.5.491-.978.995-1.486,1.477A2.412,2.412,0,0,0,.02,49.723a6.9,6.9,0,0,0,.533,2.967,18.032,18.032,0,0,0,3.2,5.331,19.8,19.8,0,0,0,6.558,5.132,9.485,9.485,0,0,0,3.633,1.057,2.662,2.662,0,0,0,2.285-.87c.424-.474.9-.907,1.352-1.361a1.416,1.416,0,0,0,.008-2.156Q16.4,58.632,15.21,57.448Z" transform="translate(-0.006 -44.217)"/><path class="a" d="M242.365,101.918l1.536-.262A6.893,6.893,0,0,0,238.07,96l-.216,1.544a5.327,5.327,0,0,1,4.511,4.374Z" transform="translate(-227.956 -92.005)"/><path class="a" d="M249.462,3.238A11.322,11.322,0,0,0,242.97,0l-.216,1.544a9.88,9.88,0,0,1,8.36,8.1l1.536-.262A11.407,11.407,0,0,0,249.462,3.238Z" transform="translate(-232.652)"/></g></g></svg>