<svg xmlns="http://www.w3.org/2000/svg" viewBox="0 0 43.779 51.336"><defs><style>.a{fill:#48c1fe;}</style></defs><g transform="translate(-37.681 0)"><g transform="translate(37.681 0)"><g transform="translate(0 0)"><path class="a" d="M80.666,8.864A85.394,85.394,0,0,1,60.12.15a1.079,1.079,0,0,0-1.1,0A83.055,83.055,0,0,1,38.475,8.864a1.08,1.08,0,0,0-.794,1.042V20.94A31.742,31.742,0,0,0,47.32,44.131c4.734,4.639,10.249,7.2,12.251,7.2s7.517-2.565,12.251-7.2A31.742,31.742,0,0,0,81.46,20.94V9.906A1.08,1.08,0,0,0,80.666,8.864ZM79.3,20.939A29.625,29.625,0,0,1,70.31,42.589c-4.655,4.562-9.633,6.587-10.739,6.587s-6.084-2.025-10.739-6.587a29.626,29.626,0,0,1-8.991-21.649V10.725a85.045,85.045,0,0,0,19.73-8.395A87.737,87.737,0,0,0,79.3,10.725Z" transform="translate(-37.681 0)"/><path class="a" d="M88.369,99.628a1.08,1.08,0,0,0-1.4-.609c-1.929.76-3.909,1.46-5.885,2.08a1.08,1.08,0,0,0-.757,1.03v4.17a1.08,1.08,0,0,0,2.16,0v-3.381c1.773-.574,3.543-1.208,5.274-1.89A1.08,1.08,0,0,0,88.369,99.628Z" transform="translate(-76.051 -89.023)"/><path class="a" d="M171.285,88.371a1.08,1.08,0,0,0,.433-.091l.02-.009a1.08,1.08,0,1,0-.872-1.976l-.017.008a1.079,1.079,0,0,0,.437,2.068Z" transform="translate(-156.915 -77.562)"/><path class="a" d="M311.451,345.7a1.08,1.08,0,0,0-1.495.313,26.285,26.285,0,0,1-3.1,3.876,27.586,27.586,0,0,1-3.1,2.756,1.08,1.08,0,1,0,1.31,1.717,29.766,29.766,0,0,0,3.341-2.972,28.415,28.415,0,0,0,3.359-4.2A1.08,1.08,0,0,0,311.451,345.7Z" transform="translate(-276.695 -310.884)"/><path class="a" d="M277.165,432.114l-.062.036a1.08,1.08,0,1,0,1.082,1.869l.072-.042a1.08,1.08,0,1,0-1.091-1.863Z" transform="translate(-252.612 -388.655)"/><g transform="translate(13.287 16.452)"><g transform="translate(0)"><path class="a" d="M159.035,171a.739.739,0,0,0-1.215,0L146.4,185.464l-6.269-7.934a.739.739,0,0,0-1.215,0,1.3,1.3,0,0,0,0,1.539l6.875,8.7a.74.74,0,0,0,1.215,0l12.032-15.233A1.3,1.3,0,0,0,159.035,171Z" transform="translate(-138.661 -170.683)"/></g></g></g></g></g></svg>