<svg xmlns="http://www.w3.org/2000/svg" viewBox="0 0 47.929 47.929"><defs><style>.a{fill:#48c1fe;}</style></defs><g transform="translate(0 16.176)"><g transform="translate(0)"><path class="a" d="M30.783,191.143c-.5-.3-1.021-.607-1.538-.906a13.393,13.393,0,0,0,0-3.119c.519-.3,1.036-.6,1.538-.905a2.02,2.02,0,0,0,.819-2.49h0l-1.1-2.66a2.02,2.02,0,0,0-2.34-1.182c-.568.141-1.149.292-1.728.447a13.4,13.4,0,0,0-2.206-2.2c.155-.579.306-1.16.447-1.728a2.02,2.02,0,0,0-1.182-2.34l-2.66-1.1a2.02,2.02,0,0,0-2.491.818c-.3.5-.607,1.02-.906,1.538a13.4,13.4,0,0,0-3.119,0c-.3-.52-.6-1.037-.905-1.538a2.021,2.021,0,0,0-2.491-.818l-2.66,1.1a2.021,2.021,0,0,0-1.182,2.34c.142.57.292,1.15.447,1.728a13.389,13.389,0,0,0-2.2,2.206c-.58-.156-1.161-.306-1.728-.447a2.02,2.02,0,0,0-2.34,1.182l-1.1,2.66a2.021,2.021,0,0,0,.818,2.49c.5.3,1.02.607,1.538.906a13.4,13.4,0,0,0,0,3.119c-.518.3-1.035.6-1.538.905a2.021,2.021,0,0,0-.818,2.49l1.1,2.66a2.02,2.02,0,0,0,2.34,1.182c.568-.141,1.148-.292,1.727-.447a13.4,13.4,0,0,0,2.206,2.2c-.155.579-.306,1.16-.447,1.728a2.02,2.02,0,0,0,1.182,2.34l2.66,1.1a1.988,1.988,0,0,0,.762.151,2.02,2.02,0,0,0,1.729-.969c.3-.5.6-1.016.906-1.538a13.419,13.419,0,0,0,3.119,0c.3.516.6,1.033.905,1.538a2.021,2.021,0,0,0,2.491.818l2.66-1.1a2.021,2.021,0,0,0,1.182-2.34c-.141-.565-.291-1.146-.447-1.728a13.4,13.4,0,0,0,2.2-2.206c.578.155,1.159.305,1.728.447a2.02,2.02,0,0,0,2.34-1.182l1.1-2.66A2.021,2.021,0,0,0,30.783,191.143Zm-2.221,4.222c-.546-.137-1.1-.282-1.657-.431a2,2,0,0,0-2.108.7,11.248,11.248,0,0,1-1.963,1.963,2,2,0,0,0-.7,2.107c.15.557.295,1.114.431,1.657l-2.445,1.013c-.291-.485-.582-.981-.867-1.476a2,2,0,0,0-1.986-.994,11.261,11.261,0,0,1-2.776,0,2,2,0,0,0-1.988.994c-.288.5-.579,1-.867,1.477l-2.445-1.013c.137-.546.281-1.1.431-1.657a2,2,0,0,0-.7-2.108,11.248,11.248,0,0,1-1.963-1.963,2,2,0,0,0-2.107-.7c-.554.149-1.111.294-1.656.431l-1.013-2.445c.483-.29.979-.581,1.476-.867a2,2,0,0,0,.994-1.986,11.262,11.262,0,0,1,0-2.776,2,2,0,0,0-.994-1.988c-.5-.286-.993-.577-1.476-.867L3.19,181.99c.545.137,1.1.281,1.657.431a2,2,0,0,0,2.108-.7,11.245,11.245,0,0,1,1.963-1.963,2,2,0,0,0,.7-2.107c-.149-.553-.294-1.109-.431-1.656l2.445-1.013c.289.482.58.978.867,1.476a2,2,0,0,0,1.986.994,11.241,11.241,0,0,1,2.776,0,2,2,0,0,0,1.987-.994c.286-.5.577-.993.867-1.476l2.445,1.013c-.137.546-.282,1.1-.431,1.657a2,2,0,0,0,.7,2.108,11.251,11.251,0,0,1,1.963,1.963,2,2,0,0,0,2.107.7c.554-.149,1.111-.294,1.656-.431l1.013,2.445c-.482.289-.978.58-1.476.867a2,2,0,0,0-.994,1.986,11.25,11.25,0,0,1,0,2.776,2,2,0,0,0,.994,1.987c.5.285.992.577,1.476.867Z" transform="translate(0 -172.801)"/></g></g><g transform="translate(8.565 24.741)"><path class="a" d="M105.56,268.807h0a7.32,7.32,0,1,0-3.957,9.553A7.32,7.32,0,0,0,105.56,268.807Zm-4.778,7.571a5.166,5.166,0,1,1,2.8-6.75A5.133,5.133,0,0,1,100.782,276.378Z" transform="translate(-91.494 -264.293)"/></g><g transform="translate(23.575)"><path class="a" d="M274.754,9.449c-.37-.055-.751-.109-1.134-.16a9.983,9.983,0,0,0-.769-1.855c.234-.307.465-.614.689-.915a1.709,1.709,0,0,0-.167-2.211l-1.48-1.48a1.709,1.709,0,0,0-2.211-.166c-.3.224-.61.455-.915.689a9.983,9.983,0,0,0-1.855-.769c-.051-.383-.1-.763-.16-1.134A1.709,1.709,0,0,0,265.07,0h-2.093A1.709,1.709,0,0,0,261.3,1.446c-.055.37-.109.75-.16,1.134a9.98,9.98,0,0,0-1.855.769c-.305-.234-.613-.465-.915-.689a1.709,1.709,0,0,0-2.211.166l-1.48,1.48a1.709,1.709,0,0,0-.167,2.212c.223.3.454.609.688.915a9.993,9.993,0,0,0-.769,1.855c-.383.051-.763.1-1.134.16a1.709,1.709,0,0,0-1.446,1.681v2.093a1.709,1.709,0,0,0,1.446,1.681c.37.055.751.109,1.134.16a9.994,9.994,0,0,0,.769,1.855c-.234.306-.465.613-.689.915a1.709,1.709,0,0,0,.167,2.211l1.48,1.48a1.709,1.709,0,0,0,2.211.166c.3-.224.61-.455.915-.688a9.987,9.987,0,0,0,1.855.769c.051.383.1.763.16,1.134a1.709,1.709,0,0,0,1.681,1.446h2.093a1.709,1.709,0,0,0,1.681-1.446c.055-.37.109-.751.16-1.134A9.975,9.975,0,0,0,268.767,21c.305.234.613.465.915.689a1.709,1.709,0,0,0,2.211-.166l1.48-1.48a1.709,1.709,0,0,0,.166-2.212c-.223-.3-.454-.609-.688-.915a9.991,9.991,0,0,0,.769-1.855c.383-.051.763-.1,1.134-.16a1.709,1.709,0,0,0,1.446-1.681V11.13A1.71,1.71,0,0,0,274.754,9.449Zm-.592,3.483c-.336.049-.679.1-1.024.141a1.7,1.7,0,0,0-1.42,1.231,7.934,7.934,0,0,1-.75,1.809,1.7,1.7,0,0,0,.133,1.875c.211.274.42.551.624.824l-1.068,1.068c-.274-.2-.55-.414-.824-.624a1.7,1.7,0,0,0-1.875-.133,7.937,7.937,0,0,1-1.809.75,1.7,1.7,0,0,0-1.231,1.42c-.045.344-.092.687-.141,1.024h-1.51c-.049-.336-.1-.679-.141-1.023a1.7,1.7,0,0,0-1.231-1.42,7.933,7.933,0,0,1-1.809-.75,1.7,1.7,0,0,0-1.875.133c-.274.211-.55.42-.824.624l-1.068-1.068c.2-.273.413-.549.624-.824a1.7,1.7,0,0,0,.133-1.875,7.937,7.937,0,0,1-.75-1.809,1.7,1.7,0,0,0-1.42-1.231c-.344-.045-.687-.092-1.024-.141v-1.51c.336-.049.679-.1,1.024-.141a1.7,1.7,0,0,0,1.42-1.231,7.932,7.932,0,0,1,.75-1.809,1.7,1.7,0,0,0-.133-1.875c-.211-.275-.421-.551-.624-.824l1.068-1.068c.274.2.55.414.824.624a1.7,1.7,0,0,0,1.875.133,7.939,7.939,0,0,1,1.809-.75,1.7,1.7,0,0,0,1.231-1.42c.045-.344.092-.687.141-1.024h1.51c.049.336.1.679.141,1.023a1.7,1.7,0,0,0,1.231,1.42,7.937,7.937,0,0,1,1.809.75,1.7,1.7,0,0,0,1.875-.133c.274-.211.55-.42.824-.624l1.068,1.068c-.2.273-.413.549-.624.824a1.7,1.7,0,0,0-.133,1.875,7.941,7.941,0,0,1,.75,1.809,1.7,1.7,0,0,0,1.42,1.231c.344.045.687.092,1.024.141Z" transform="translate(-251.847)"/></g><g transform="translate(31.408 7.833)"><path class="a" d="M339.867,83.675a4.344,4.344,0,1,0,4.344,4.344A4.349,4.349,0,0,0,339.867,83.675Zm0,6.756a2.413,2.413,0,1,1,2.413-2.413A2.416,2.416,0,0,1,339.867,90.431Z" transform="translate(-335.523 -83.675)"/></g></svg>