<svg xmlns="http://www.w3.org/2000/svg" viewBox="0 0 47.313 50.003"><defs><style>.a{fill:#48c1fe;}</style></defs><g transform="translate(-0.003 -1.492)"><g transform="translate(23.748 24.458)"><ellipse class="a" cx="0.928" cy="0.986" rx="0.928" ry="0.986"/></g><g transform="translate(30.086 11.712)"><path class="a" d="M332.291,106.746a3.785,3.785,0,0,0-5.585,0,4.393,4.393,0,0,0,0,5.937,3.79,3.79,0,0,0,5.585,0A4.393,4.393,0,0,0,332.291,106.746Zm-1.312,4.542a2.009,2.009,0,0,1-2.961,0,2.329,2.329,0,0,1,0-3.147,2.007,2.007,0,0,1,2.96,0A2.329,2.329,0,0,1,330.979,111.288Z" transform="translate(-325.551 -105.516)"/></g><g transform="translate(2.991 38.737)"><path class="a" d="M40.95,383.645a.9.9,0,0,0-1.244.443L38.6,386.448a3.064,3.064,0,0,1-2.522,1.79l-1.285.094a.528.528,0,0,1-.426-.17.6.6,0,0,1-.16-.453l.088-1.366a3.267,3.267,0,0,1,1.684-2.681l2.219-1.175a1.016,1.016,0,0,0,.417-1.322.9.9,0,0,0-1.244-.443l-2.219,1.175a5.254,5.254,0,0,0-2.708,4.313l-.088,1.366a2.649,2.649,0,0,0,.7,1.983,2.335,2.335,0,0,0,1.7.749c.055,0,.11,0,.164-.006l1.285-.094a4.927,4.927,0,0,0,4.057-2.879l1.105-2.359A1.016,1.016,0,0,0,40.95,383.645Z" transform="translate(-32.35 -380.616)"/></g><g transform="translate(0.003 1.492)"><g transform="translate(0 0)"><path class="a" d="M46.691,2.149A2.078,2.078,0,0,0,45.047,1.5l-.864.059a27.5,27.5,0,0,0-19.889,10.9l-2.033,2.661-5.321-.166h-.027A15.24,15.24,0,0,0,5.74,19.875L.29,25.669A1.032,1.032,0,0,0,.08,26.72a.934.934,0,0,0,.818.631l11.537.63-.47.616a1.037,1.037,0,0,0-.095,1.093q.271.53.568,1.043L9.7,34.186a1.037,1.037,0,0,0-.129,1.057,12.961,12.961,0,0,0,2.358,3.585,12.179,12.179,0,0,0,3.442,2.581.88.88,0,0,0,.4.095.894.894,0,0,0,.585-.22c.589-.508,1.269-1.111,1.926-1.694.468-.416.948-.841,1.4-1.233q.4.257.813.5a.882.882,0,0,0,1.012-.087l.632-.522.6,12.316a.983.983,0,0,0,.594.87.878.878,0,0,0,.333.066.9.9,0,0,0,.656-.289l5.45-5.794a17.234,17.234,0,0,0,4.628-11.877v-5.4l2.15-1.774A30.256,30.256,0,0,0,47.306,4.368l.022-.48A2.365,2.365,0,0,0,46.691,2.149ZM3.077,25.5,7.052,21.27A13.452,13.452,0,0,1,16.9,16.928l3.889.121-6.9,9.036Zm14.014,12.58c-.484.43-.981.87-1.442,1.273a10.319,10.319,0,0,1-2.4-1.909,10.877,10.877,0,0,1-1.732-2.482l2-2.528A22.54,22.54,0,0,0,15.5,34.878l0,0h0a21.935,21.935,0,0,0,2.554,2.334Zm15.442-4.539A15.21,15.21,0,0,1,28.45,44.018l-3.975,4.225L23.92,36.77l8.614-7.106v3.872ZM45.453,4.271A28.245,28.245,0,0,1,35.4,24.8l-14.551,12a19.769,19.769,0,0,1-3.361-2.637L22.4,28.953a1.031,1.031,0,0,0,0-1.395.889.889,0,0,0-1.312,0l-4.9,5.21A20.87,20.87,0,0,1,13.8,29.319L25.735,13.7A25.669,25.669,0,0,1,44.3,3.524l.864-.059a.283.283,0,0,1,.224.089.318.318,0,0,1,.087.237Z" transform="translate(-0.018 -1.492)"/></g></g></g></svg>