<svg class="svg-icons-sprite" style="display: none;">

<!-- infinite-symbol.svg -->
<symbol id="svg-icon-1" viewBox="0 0 57.099 26.897"><g transform="translate(0 -107.305)"><path class="svg-icon-color" d="M43.664,107.3c-6.189,0-12.961,8.876-15.124,11.957-2.184-3.106-8.934-11.929-15.1-11.929a13.435,13.435,0,0,0,0,26.87c6.189,0,12.961-8.876,15.124-11.957,2.184,3.106,8.934,11.929,15.1,11.929a13.435,13.435,0,1,0,0-26.87ZM13.435,132.523a11.756,11.756,0,0,1,0-23.511c5.7,0,12.579,9.536,14.1,11.756C26.014,122.987,19.136,132.523,13.435,132.523Zm30.229-.028c-5.7,0-12.579-9.536-14.1-11.756,1.523-2.219,8.4-11.756,14.1-11.756a11.756,11.756,0,1,1,0,23.511Z"/></g></symbol>

<!-- medal.svg -->
<symbol id="svg-icon-2" viewBox="0 0 44.108 51.908"><g transform="translate(-30.433)"><g transform="translate(30.433 0)"><path class="svg-icon-color" d="M74.394,43.195,66.807,29.867a2.137,2.137,0,0,0,1.179-2.1l-.564-4.716,3.229-3.383a2.111,2.111,0,0,0,.051-2.819l-3.229-3.486L68.14,8.6A2.121,2.121,0,0,0,66.5,6.34l-4.664-.923L59.58,1.265A2.017,2.017,0,0,0,56.966.292h-.051l-4.306,2L48.406.24a2,2,0,0,0-2.717.82L43.382,5.212l-4.664.82a2.1,2.1,0,0,0-1.692,2.307l.564,4.716-3.229,3.383a2.111,2.111,0,0,0-.051,2.819l3.229,3.486-.666,4.767a2.111,2.111,0,0,0,1.333,2.153L30.568,43.195a1.044,1.044,0,0,0,0,1.025,1.057,1.057,0,0,0,.871.513h8.2l3.742,6.51a1.057,1.057,0,0,0,.871.513.992.992,0,0,0,.871-.513l7.33-12.507L59.785,51.4a1.057,1.057,0,0,0,.871.513.992.992,0,0,0,.871-.513l3.742-6.664h8.2a.992.992,0,0,0,.871-.513A.848.848,0,0,0,74.394,43.195ZM44.305,48.679l-3.178-5.485a1.057,1.057,0,0,0-.871-.513H33.182l7.074-12.507,2.922.513,2.255,4.152a2.017,2.017,0,0,0,2.614.974H48.1l2.1-.974,1.025,1.794Zm2.973-14.711h-.051l-2.255-4.254a1.913,1.913,0,0,0-1.435-.974l-4.716-.871.666-4.716a2,2,0,0,0-.513-1.692L35.8,17.976l3.229-3.383a1.925,1.925,0,0,0,.564-1.692l-.564-4.664a.159.159,0,0,1,.051-.1l4.664-.82a2.075,2.075,0,0,0,1.435-1.025l2.307-4.152,4.2,2.05a1.961,1.961,0,0,0,1.845,0l4.254-1.948h.051l2.255,4.254a1.917,1.917,0,0,0,1.384.974l4.664.923-.666,4.716a2,2,0,0,0,.513,1.692l3.229,3.486-3.281,3.383a1.925,1.925,0,0,0-.564,1.692l.564,4.716-4.613.769a2.075,2.075,0,0,0-1.435,1.025l-2.307,4.152-4.2-2.05a1.961,1.961,0,0,0-1.845,0Zm17.428,8.714a.992.992,0,0,0-.871.513l-3.178,5.638L53.429,36.326a.826.826,0,0,0-.205-.359l-1.128-2,.359-.154,4.2,2.05a2.109,2.109,0,0,0,2.717-.82l2.307-4.152,3.075-.564,7.022,12.353Z" transform="translate(-30.433 0)"/><path class="svg-icon-color" d="M142.791,71.327A10.252,10.252,0,1,0,132.54,81.578,10.282,10.282,0,0,0,142.791,71.327Zm-10.252,8.2a8.2,8.2,0,1,1,8.2-8.2A8.225,8.225,0,0,1,132.54,79.528Z" transform="translate(-110.517 -53.249)"/></g></g></symbol>

<!-- delivery-truck.svg -->
<symbol id="svg-icon-3" viewBox="0 0 54.58 37.21"><path class="svg-icon-color" d="M44.622,645.717a5.04,5.04,0,0,0-3.556,1.467,4.938,4.938,0,0,0,0,7.068,5.059,5.059,0,0,0,3.556,1.467,5,5,0,0,0,0-10Zm0,7.78a2.779,2.779,0,1,1,0-5.557,2.779,2.779,0,0,1,0,5.557Zm1.289-24.44a1.08,1.08,0,0,0-.745-.289h-5.7a1.115,1.115,0,0,0-1.111,1.111v9.113a1.115,1.115,0,0,0,1.111,1.111h9.047a1.115,1.115,0,0,0,1.111-1.111v-6.1a1.112,1.112,0,0,0-.367-.822Zm1.489,8.825H40.577v-6.9h4.157l2.667,2.4Zm-29.919,7.835a5.04,5.04,0,0,0-3.556,1.467,4.938,4.938,0,0,0,0,7.068,5.059,5.059,0,0,0,3.556,1.467,5,5,0,0,0,0-10Zm0,7.78a2.779,2.779,0,1,1,0-5.557,2.779,2.779,0,0,1,0,5.557Zm-7.413-6.413H7.835v-2.956a1.111,1.111,0,0,0-2.223,0V648.2a1.115,1.115,0,0,0,1.111,1.111h3.345a1.111,1.111,0,1,0,0-2.223Zm5.635-6.057a1.115,1.115,0,0,0-1.111-1.111H1.111a1.111,1.111,0,1,0,0,2.223H14.593A1.108,1.108,0,0,0,15.7,641.027ZM3.368,637.015l13.481.078a1.122,1.122,0,0,0,1.123-1.1,1.1,1.1,0,0,0-1.1-1.122L3.39,634.792H3.379a1.111,1.111,0,0,0-.011,2.223Zm2.267-5.046H19.116a1.111,1.111,0,1,0,0-2.223H5.635a1.111,1.111,0,1,0,0,2.223Zm48.535-1.5h0l-7.958-6.591a1.1,1.1,0,0,0-.711-.256H36.143v-4a1.115,1.115,0,0,0-1.111-1.111H6.724a1.115,1.115,0,0,0-1.111,1.111v8.135a1.111,1.111,0,1,0,2.223,0v-7.024h26.1v26.351H24.817a1.111,1.111,0,1,0,0,2.223h13.57a1.111,1.111,0,1,0,0-2.223H36.154V625.845h8.958l7.246,6-.078,15.215H51.124a1.111,1.111,0,1,0,0,2.223H53.38a1.105,1.105,0,0,0,1.111-1.1l.089-16.849A1.174,1.174,0,0,0,54.169,630.469Z" transform="translate(0 -618.51)"/></symbol>

<!-- startup.svg -->
<symbol id="svg-icon-4" viewBox="0 0 47.313 50.003"><g transform="translate(-0.003 -1.492)"><g transform="translate(23.748 24.458)"><ellipse class="svg-icon-color" cx="0.928" cy="0.986" rx="0.928" ry="0.986"/></g><g transform="translate(30.086 11.712)"><path class="svg-icon-color" d="M332.291,106.746a3.785,3.785,0,0,0-5.585,0,4.393,4.393,0,0,0,0,5.937,3.79,3.79,0,0,0,5.585,0A4.393,4.393,0,0,0,332.291,106.746Zm-1.312,4.542a2.009,2.009,0,0,1-2.961,0,2.329,2.329,0,0,1,0-3.147,2.007,2.007,0,0,1,2.96,0A2.329,2.329,0,0,1,330.979,111.288Z" transform="translate(-325.551 -105.516)"/></g><g transform="translate(2.991 38.737)"><path class="svg-icon-color" d="M40.95,383.645a.9.9,0,0,0-1.244.443L38.6,386.448a3.064,3.064,0,0,1-2.522,1.79l-1.285.094a.528.528,0,0,1-.426-.17.6.6,0,0,1-.16-.453l.088-1.366a3.267,3.267,0,0,1,1.684-2.681l2.219-1.175a1.016,1.016,0,0,0,.417-1.322.9.9,0,0,0-1.244-.443l-2.219,1.175a5.254,5.254,0,0,0-2.708,4.313l-.088,1.366a2.649,2.649,0,0,0,.7,1.983,2.335,2.335,0,0,0,1.7.749c.055,0,.11,0,.164-.006l1.285-.094a4.927,4.927,0,0,0,4.057-2.879l1.105-2.359A1.016,1.016,0,0,0,40.95,383.645Z" transform="translate(-32.35 -380.616)"/></g><g transform="translate(0.003 1.492)"><g transform="translate(0 0)"><path class="svg-icon-color" d="M46.691,2.149A2.078,2.078,0,0,0,45.047,1.5l-.864.059a27.5,27.5,0,0,0-19.889,10.9l-2.033,2.661-5.321-.166h-.027A15.24,15.24,0,0,0,5.74,19.875L.29,25.669A1.032,1.032,0,0,0,.08,26.72a.934.934,0,0,0,.818.631l11.537.63-.47.616a1.037,1.037,0,0,0-.095,1.093q.271.53.568,1.043L9.7,34.186a1.037,1.037,0,0,0-.129,1.057,12.961,12.961,0,0,0,2.358,3.585,12.179,12.179,0,0,0,3.442,2.581.88.88,0,0,0,.4.095.894.894,0,0,0,.585-.22c.589-.508,1.269-1.111,1.926-1.694.468-.416.948-.841,1.4-1.233q.4.257.813.5a.882.882,0,0,0,1.012-.087l.632-.522.6,12.316a.983.983,0,0,0,.594.87.878.878,0,0,0,.333.066.9.9,0,0,0,.656-.289l5.45-5.794a17.234,17.234,0,0,0,4.628-11.877v-5.4l2.15-1.774A30.256,30.256,0,0,0,47.306,4.368l.022-.48A2.365,2.365,0,0,0,46.691,2.149ZM3.077,25.5,7.052,21.27A13.452,13.452,0,0,1,16.9,16.928l3.889.121-6.9,9.036Zm14.014,12.58c-.484.43-.981.87-1.442,1.273a10.319,10.319,0,0,1-2.4-1.909,10.877,10.877,0,0,1-1.732-2.482l2-2.528A22.54,22.54,0,0,0,15.5,34.878l0,0h0a21.935,21.935,0,0,0,2.554,2.334Zm15.442-4.539A15.21,15.21,0,0,1,28.45,44.018l-3.975,4.225L23.92,36.77l8.614-7.106v3.872ZM45.453,4.271A28.245,28.245,0,0,1,35.4,24.8l-14.551,12a19.769,19.769,0,0,1-3.361-2.637L22.4,28.953a1.031,1.031,0,0,0,0-1.395.889.889,0,0,0-1.312,0l-4.9,5.21A20.87,20.87,0,0,1,13.8,29.319L25.735,13.7A25.669,25.669,0,0,1,44.3,3.524l.864-.059a.283.283,0,0,1,.224.089.318.318,0,0,1,.087.237Z" transform="translate(-0.018 -1.492)"/></g></g></g></symbol>

<!-- secure-shield.svg -->
<symbol id="svg-icon-5" viewBox="0 0 43.779 51.336"><g transform="translate(-37.681 0)"><g transform="translate(37.681 0)"><g transform="translate(0 0)"><path class="svg-icon-color" d="M80.666,8.864A85.394,85.394,0,0,1,60.12.15a1.079,1.079,0,0,0-1.1,0A83.055,83.055,0,0,1,38.475,8.864a1.08,1.08,0,0,0-.794,1.042V20.94A31.742,31.742,0,0,0,47.32,44.131c4.734,4.639,10.249,7.2,12.251,7.2s7.517-2.565,12.251-7.2A31.742,31.742,0,0,0,81.46,20.94V9.906A1.08,1.08,0,0,0,80.666,8.864ZM79.3,20.939A29.625,29.625,0,0,1,70.31,42.589c-4.655,4.562-9.633,6.587-10.739,6.587s-6.084-2.025-10.739-6.587a29.626,29.626,0,0,1-8.991-21.649V10.725a85.045,85.045,0,0,0,19.73-8.395A87.737,87.737,0,0,0,79.3,10.725Z" transform="translate(-37.681 0)"/><path class="svg-icon-color" d="M88.369,99.628a1.08,1.08,0,0,0-1.4-.609c-1.929.76-3.909,1.46-5.885,2.08a1.08,1.08,0,0,0-.757,1.03v4.17a1.08,1.08,0,0,0,2.16,0v-3.381c1.773-.574,3.543-1.208,5.274-1.89A1.08,1.08,0,0,0,88.369,99.628Z" transform="translate(-76.051 -89.023)"/><path class="svg-icon-color" d="M171.285,88.371a1.08,1.08,0,0,0,.433-.091l.02-.009a1.08,1.08,0,1,0-.872-1.976l-.017.008a1.079,1.079,0,0,0,.437,2.068Z" transform="translate(-156.915 -77.562)"/><path class="svg-icon-color" d="M311.451,345.7a1.08,1.08,0,0,0-1.495.313,26.285,26.285,0,0,1-3.1,3.876,27.586,27.586,0,0,1-3.1,2.756,1.08,1.08,0,1,0,1.31,1.717,29.766,29.766,0,0,0,3.341-2.972,28.415,28.415,0,0,0,3.359-4.2A1.08,1.08,0,0,0,311.451,345.7Z" transform="translate(-276.695 -310.884)"/><path class="svg-icon-color" d="M277.165,432.114l-.062.036a1.08,1.08,0,1,0,1.082,1.869l.072-.042a1.08,1.08,0,1,0-1.091-1.863Z" transform="translate(-252.612 -388.655)"/><g transform="translate(13.287 16.452)"><g transform="translate(0)"><path class="svg-icon-color" d="M159.035,171a.739.739,0,0,0-1.215,0L146.4,185.464l-6.269-7.934a.739.739,0,0,0-1.215,0,1.3,1.3,0,0,0,0,1.539l6.875,8.7a.74.74,0,0,0,1.215,0l12.032-15.233A1.3,1.3,0,0,0,159.035,171Z" transform="translate(-138.661 -170.683)"/></g></g></g></g></g></symbol>

<!-- manager.svg -->
<symbol id="svg-icon-6" viewBox="0 0 41.486 56.669"><g transform="translate(-68.588)"><g transform="translate(68.588)"><g transform="translate(0)"><path class="svg-icon-color" d="M103.713,37.591H97.9V34.125a14.09,14.09,0,0,0,5.531-11.192V18.628c.984-5,.556-8.678-1.274-10.942a5.714,5.714,0,0,0-3.151-2c0-.721,0-2.132,0-4.823a.83.83,0,0,0-.83-.83c-.669,0-1.355-.008-2.081-.016C95.345.009,94.565,0,93.776,0,87.77,0,81.714.565,78.1,4.664c-2.725,3.087-3.665,7.667-2.873,14,0,.006,0,.011,0,.016v4.25a14.089,14.089,0,0,0,5.532,11.192v3.466H74.949a6.368,6.368,0,0,0-6.361,6.361s0,0,0,.006v4.419a.83.83,0,0,0,1.659,0V43.952s0,0,0,0a4.707,4.707,0,0,1,4.7-4.7h6.387l3.041,2.027,2.985,2.985-1,10.746H77.992v-5.47a.83.83,0,0,0-1.659,0v5.47H70.248V51.7a.83.83,0,0,0-1.659,0v4.136s0,0,0,.006a.831.831,0,0,0,.83.83h39.826a.83.83,0,0,0,.83-.83V43.952A6.368,6.368,0,0,0,103.713,37.591ZM79.34,5.762c3.183-3.606,8.819-4.1,14.436-4.1.781,0,1.556.009,2.305.017.436,0,.857.01,1.27.013,0,4.085,0,4.709,0,4.709a.823.823,0,0,0,.811.829A3.9,3.9,0,0,1,100.9,8.76c1.179,1.485,1.613,3.914,1.285,7.1l-1.25-2.5a.83.83,0,0,0-.994-.419c-.074.024-7.5,2.375-11.819,2.375A17.588,17.588,0,0,1,80.1,13.026a.83.83,0,0,0-1.1.21l-2.336,3.115C76.367,11.609,77.247,8.133,79.34,5.762ZM76.886,22.933V18.827L79.9,14.811a18.73,18.73,0,0,0,8.22,2.168c3.828,0,9.658-1.648,11.643-2.245l2.016,4.031v4.168A12.459,12.459,0,0,1,89.5,35.377a.84.84,0,0,0-.336,0A12.46,12.46,0,0,1,76.886,22.933Zm19.36,12.29v2.754L93.6,39.739l-3.441-.86V37.013A14,14,0,0,0,96.245,35.223ZM82.417,37.977V35.223a14,14,0,0,0,6.084,1.79v1.866l-3.441.86Zm4.112,3.106,2.8-.7,2.8.7-2.04,2.04H88.569Zm1.5,13.926.952-10.227h.7l.952,10.227h-2.6Zm20.386,0H92.3l-1-10.746,2.985-2.985,3.041-2.028h6.387a4.707,4.707,0,0,1,4.7,4.7V55.009Z" transform="translate(-68.588)"/></g></g><g transform="translate(94.033 43.178)"><g transform="translate(0)"><path class="svg-icon-color" d="M309.267,392.322h-2.489v-1.383a.83.83,0,0,0-.83-.83h-3.319a.83.83,0,0,0-.83.83v1.383h-2.489a.83.83,0,0,0-.83.83v5.531a.83.83,0,0,0,.83.83h9.957a.83.83,0,0,0,.83-.83v-5.531A.83.83,0,0,0,309.267,392.322Zm-5.808-.553h1.659v.553h-1.659Zm4.978,6.085h-8.3v-3.872h8.3Z" transform="translate(-298.481 -390.109)"/></g></g></g></symbol>

<!-- settings.svg -->
<symbol id="svg-icon-7" viewBox="0 0 47.929 47.929"><g transform="translate(0 16.176)"><g transform="translate(0)"><path class="svg-icon-color" d="M30.783,191.143c-.5-.3-1.021-.607-1.538-.906a13.393,13.393,0,0,0,0-3.119c.519-.3,1.036-.6,1.538-.905a2.02,2.02,0,0,0,.819-2.49h0l-1.1-2.66a2.02,2.02,0,0,0-2.34-1.182c-.568.141-1.149.292-1.728.447a13.4,13.4,0,0,0-2.206-2.2c.155-.579.306-1.16.447-1.728a2.02,2.02,0,0,0-1.182-2.34l-2.66-1.1a2.02,2.02,0,0,0-2.491.818c-.3.5-.607,1.02-.906,1.538a13.4,13.4,0,0,0-3.119,0c-.3-.52-.6-1.037-.905-1.538a2.021,2.021,0,0,0-2.491-.818l-2.66,1.1a2.021,2.021,0,0,0-1.182,2.34c.142.57.292,1.15.447,1.728a13.389,13.389,0,0,0-2.2,2.206c-.58-.156-1.161-.306-1.728-.447a2.02,2.02,0,0,0-2.34,1.182l-1.1,2.66a2.021,2.021,0,0,0,.818,2.49c.5.3,1.02.607,1.538.906a13.4,13.4,0,0,0,0,3.119c-.518.3-1.035.6-1.538.905a2.021,2.021,0,0,0-.818,2.49l1.1,2.66a2.02,2.02,0,0,0,2.34,1.182c.568-.141,1.148-.292,1.727-.447a13.4,13.4,0,0,0,2.206,2.2c-.155.579-.306,1.16-.447,1.728a2.02,2.02,0,0,0,1.182,2.34l2.66,1.1a1.988,1.988,0,0,0,.762.151,2.02,2.02,0,0,0,1.729-.969c.3-.5.6-1.016.906-1.538a13.419,13.419,0,0,0,3.119,0c.3.516.6,1.033.905,1.538a2.021,2.021,0,0,0,2.491.818l2.66-1.1a2.021,2.021,0,0,0,1.182-2.34c-.141-.565-.291-1.146-.447-1.728a13.4,13.4,0,0,0,2.2-2.206c.578.155,1.159.305,1.728.447a2.02,2.02,0,0,0,2.34-1.182l1.1-2.66A2.021,2.021,0,0,0,30.783,191.143Zm-2.221,4.222c-.546-.137-1.1-.282-1.657-.431a2,2,0,0,0-2.108.7,11.248,11.248,0,0,1-1.963,1.963,2,2,0,0,0-.7,2.107c.15.557.295,1.114.431,1.657l-2.445,1.013c-.291-.485-.582-.981-.867-1.476a2,2,0,0,0-1.986-.994,11.261,11.261,0,0,1-2.776,0,2,2,0,0,0-1.988.994c-.288.5-.579,1-.867,1.477l-2.445-1.013c.137-.546.281-1.1.431-1.657a2,2,0,0,0-.7-2.108,11.248,11.248,0,0,1-1.963-1.963,2,2,0,0,0-2.107-.7c-.554.149-1.111.294-1.656.431l-1.013-2.445c.483-.29.979-.581,1.476-.867a2,2,0,0,0,.994-1.986,11.262,11.262,0,0,1,0-2.776,2,2,0,0,0-.994-1.988c-.5-.286-.993-.577-1.476-.867L3.19,181.99c.545.137,1.1.281,1.657.431a2,2,0,0,0,2.108-.7,11.245,11.245,0,0,1,1.963-1.963,2,2,0,0,0,.7-2.107c-.149-.553-.294-1.109-.431-1.656l2.445-1.013c.289.482.58.978.867,1.476a2,2,0,0,0,1.986.994,11.241,11.241,0,0,1,2.776,0,2,2,0,0,0,1.987-.994c.286-.5.577-.993.867-1.476l2.445,1.013c-.137.546-.282,1.1-.431,1.657a2,2,0,0,0,.7,2.108,11.251,11.251,0,0,1,1.963,1.963,2,2,0,0,0,2.107.7c.554-.149,1.111-.294,1.656-.431l1.013,2.445c-.482.289-.978.58-1.476.867a2,2,0,0,0-.994,1.986,11.25,11.25,0,0,1,0,2.776,2,2,0,0,0,.994,1.987c.5.285.992.577,1.476.867Z" transform="translate(0 -172.801)"/></g></g><g transform="translate(8.565 24.741)"><path class="svg-icon-color" d="M105.56,268.807h0a7.32,7.32,0,1,0-3.957,9.553A7.32,7.32,0,0,0,105.56,268.807Zm-4.778,7.571a5.166,5.166,0,1,1,2.8-6.75A5.133,5.133,0,0,1,100.782,276.378Z" transform="translate(-91.494 -264.293)"/></g><g transform="translate(23.575)"><path class="svg-icon-color" d="M274.754,9.449c-.37-.055-.751-.109-1.134-.16a9.983,9.983,0,0,0-.769-1.855c.234-.307.465-.614.689-.915a1.709,1.709,0,0,0-.167-2.211l-1.48-1.48a1.709,1.709,0,0,0-2.211-.166c-.3.224-.61.455-.915.689a9.983,9.983,0,0,0-1.855-.769c-.051-.383-.1-.763-.16-1.134A1.709,1.709,0,0,0,265.07,0h-2.093A1.709,1.709,0,0,0,261.3,1.446c-.055.37-.109.75-.16,1.134a9.98,9.98,0,0,0-1.855.769c-.305-.234-.613-.465-.915-.689a1.709,1.709,0,0,0-2.211.166l-1.48,1.48a1.709,1.709,0,0,0-.167,2.212c.223.3.454.609.688.915a9.993,9.993,0,0,0-.769,1.855c-.383.051-.763.1-1.134.16a1.709,1.709,0,0,0-1.446,1.681v2.093a1.709,1.709,0,0,0,1.446,1.681c.37.055.751.109,1.134.16a9.994,9.994,0,0,0,.769,1.855c-.234.306-.465.613-.689.915a1.709,1.709,0,0,0,.167,2.211l1.48,1.48a1.709,1.709,0,0,0,2.211.166c.3-.224.61-.455.915-.688a9.987,9.987,0,0,0,1.855.769c.051.383.1.763.16,1.134a1.709,1.709,0,0,0,1.681,1.446h2.093a1.709,1.709,0,0,0,1.681-1.446c.055-.37.109-.751.16-1.134A9.975,9.975,0,0,0,268.767,21c.305.234.613.465.915.689a1.709,1.709,0,0,0,2.211-.166l1.48-1.48a1.709,1.709,0,0,0,.166-2.212c-.223-.3-.454-.609-.688-.915a9.991,9.991,0,0,0,.769-1.855c.383-.051.763-.1,1.134-.16a1.709,1.709,0,0,0,1.446-1.681V11.13A1.71,1.71,0,0,0,274.754,9.449Zm-.592,3.483c-.336.049-.679.1-1.024.141a1.7,1.7,0,0,0-1.42,1.231,7.934,7.934,0,0,1-.75,1.809,1.7,1.7,0,0,0,.133,1.875c.211.274.42.551.624.824l-1.068,1.068c-.274-.2-.55-.414-.824-.624a1.7,1.7,0,0,0-1.875-.133,7.937,7.937,0,0,1-1.809.75,1.7,1.7,0,0,0-1.231,1.42c-.045.344-.092.687-.141,1.024h-1.51c-.049-.336-.1-.679-.141-1.023a1.7,1.7,0,0,0-1.231-1.42,7.933,7.933,0,0,1-1.809-.75,1.7,1.7,0,0,0-1.875.133c-.274.211-.55.42-.824.624l-1.068-1.068c.2-.273.413-.549.624-.824a1.7,1.7,0,0,0,.133-1.875,7.937,7.937,0,0,1-.75-1.809,1.7,1.7,0,0,0-1.42-1.231c-.344-.045-.687-.092-1.024-.141v-1.51c.336-.049.679-.1,1.024-.141a1.7,1.7,0,0,0,1.42-1.231,7.932,7.932,0,0,1,.75-1.809,1.7,1.7,0,0,0-.133-1.875c-.211-.275-.421-.551-.624-.824l1.068-1.068c.274.2.55.414.824.624a1.7,1.7,0,0,0,1.875.133,7.939,7.939,0,0,1,1.809-.75,1.7,1.7,0,0,0,1.231-1.42c.045-.344.092-.687.141-1.024h1.51c.049.336.1.679.141,1.023a1.7,1.7,0,0,0,1.231,1.42,7.937,7.937,0,0,1,1.809.75,1.7,1.7,0,0,0,1.875-.133c.274-.211.55-.42.824-.624l1.068,1.068c-.2.273-.413.549-.624.824a1.7,1.7,0,0,0-.133,1.875,7.941,7.941,0,0,1,.75,1.809,1.7,1.7,0,0,0,1.42,1.231c.344.045.687.092,1.024.141Z" transform="translate(-251.847)"/></g><g transform="translate(31.408 7.833)"><path class="svg-icon-color" d="M339.867,83.675a4.344,4.344,0,1,0,4.344,4.344A4.349,4.349,0,0,0,339.867,83.675Zm0,6.756a2.413,2.413,0,1,1,2.413-2.413A2.416,2.416,0,0,1,339.867,90.431Z" transform="translate(-335.523 -83.675)"/></g></symbol>

<!-- open-magazine.svg -->
<symbol id="svg-icon-8" viewBox="0 0 53.801 38.954"><g transform="translate(0 -42.126)"><path class="svg-icon-color" d="M226.736,148.3V125.387a.874.874,0,0,0-1.736,0V148.3a.874.874,0,0,0,1.736,0Z" transform="translate(-198.967 -74.054)"/><path class="svg-icon-color" d="M52.933,45.569a24.966,24.966,0,0,1-6.541-1.441,34.929,34.929,0,0,0-10.143-2A11.243,11.243,0,0,0,28.137,45.1,9.5,9.5,0,0,0,26.9,46.563,9.5,9.5,0,0,0,25.664,45.1a11.243,11.243,0,0,0-8.112-2.971,34.928,34.928,0,0,0-10.143,2A24.97,24.97,0,0,1,.868,45.569.822.822,0,0,0,0,46.337V77.244a.822.822,0,0,0,.868.767,26.11,26.11,0,0,0,7.109-1.526,33.451,33.451,0,0,1,9.575-1.918,9.443,9.443,0,0,1,6.831,2.471.95.95,0,0,0,1.226.049A.707.707,0,0,0,25.664,76a11.243,11.243,0,0,0-8.112-2.971,34.928,34.928,0,0,0-10.143,2A31.977,31.977,0,0,1,1.736,76.43V47.066a31.729,31.729,0,0,0,6.241-1.487,33.451,33.451,0,0,1,9.575-1.918c6.7,0,8.449,4.7,8.52,4.9a.906.906,0,0,0,1.659,0c.017-.049,1.78-4.9,8.52-4.9a33.451,33.451,0,0,1,9.575,1.918,31.724,31.724,0,0,0,6.241,1.487V76.43a31.985,31.985,0,0,1-5.673-1.395,34.929,34.929,0,0,0-10.143-2A11.242,11.242,0,0,0,28.137,76a.707.707,0,0,0,.056,1.084.95.95,0,0,0,1.226-.049,9.443,9.443,0,0,1,6.831-2.471,33.451,33.451,0,0,1,9.575,1.918,26.112,26.112,0,0,0,7.109,1.526.822.822,0,0,0,.868-.767V46.337A.822.822,0,0,0,52.933,45.569Z" transform="translate(0)"/><path class="svg-icon-color" d="M52.933,377.661a24.968,24.968,0,0,1-6.541-1.441,34.927,34.927,0,0,0-10.143-2,11.367,11.367,0,0,0-7.844,2.721H25.4a11.368,11.368,0,0,0-7.844-2.721,34.927,34.927,0,0,0-10.143,2,24.968,24.968,0,0,1-6.541,1.441.773.773,0,1,0,0,1.535,26.11,26.11,0,0,0,7.109-1.526,33.45,33.45,0,0,1,9.575-1.918,9.443,9.443,0,0,1,6.831,2.471.923.923,0,0,0,.641.25h3.755a.923.923,0,0,0,.641-.25,9.443,9.443,0,0,1,6.831-2.471,33.451,33.451,0,0,1,9.575,1.918,26.111,26.111,0,0,0,7.109,1.526.773.773,0,1,0,0-1.535Z" transform="translate(0 -298.116)"/></g></symbol>

<!-- Муфты  -->
<symbol id="svg-icon-9" viewBox="0 0 35.518 54.548">
  <g transform="translate(-0.025 0.075)"><g transform="translate(4.868 0.3)"><path class="svg-icon-color" d="M23.313,7.985c-6.434,0-12.913-1.3-12.913-3.843C10.4,1.64,16.879.3,23.313.3S36.227,1.64,36.227,4.187C36.227,6.69,29.7,7.985,23.313,7.985Zm0-6.39c-7.551,0-11.662,1.7-11.662,2.592s4.111,2.547,11.662,2.547,11.617-1.7,11.617-2.547S30.82,1.6,23.313,1.6Z" transform="translate(-10.4 -0.3)"/><path class="svg-icon-color" d="M11.026,17.743a.611.611,0,0,1-.626-.626V8.226a.626.626,0,0,1,1.251,0v8.892A.611.611,0,0,1,11.026,17.743Z" transform="translate(-10.4 -4.338)"/><path class="svg-icon-color" d="M65.926,17.743a.611.611,0,0,1-.626-.626V8.226a.626.626,0,1,1,1.251,0v8.892A.586.586,0,0,1,65.926,17.743Z" transform="translate(-40.769 -4.338)"/></g><g transform="translate(0.4 11.158)"><path class="svg-icon-color" d="M75.77,66.082a.687.687,0,0,1-.67-.67V30.47a.67.67,0,1,1,1.34,0V65.412A.658.658,0,0,1,75.77,66.082Z" transform="translate(-41.722 -27.477)"/><path class="svg-icon-color" d="M1.07,66.627a.687.687,0,0,1-.67-.67V30.97a.687.687,0,0,1,.67-.67.687.687,0,0,1,.67.67V65.912A.7.7,0,0,1,1.07,66.627Z" transform="translate(-0.4 -27.753)"/><path class="svg-icon-color" d="M17.782,114.5c-8.624,0-17.382-1.7-17.382-5H1.74c0,1.475,6.256,3.664,16.041,3.664s16.041-2.145,16.041-3.664h1.34C35.118,112.762,26.405,114.5,17.782,114.5Z" transform="translate(-0.4 -71.564)"/><path class="svg-icon-color" d="M29.98,24.6v1.385c2.5.581,3.8,1.206,3.8,1.609,0,.8-5.451,2.681-16.041,2.681S1.7,28.4,1.7,27.594c0-.4,1.3-1.028,3.8-1.609V24.6C2.545,25.226.4,26.164.4,27.594c0,3.172,11.349,4.021,17.382,4.021s17.382-.849,17.382-4.021C35.118,26.164,32.974,25.226,29.98,24.6Z" transform="translate(-0.4 -24.6)"/></g></g>
</symbol>

<!-- Фитинги -->
<symbol id="svg-icon-10" viewBox="0 0 39.103 46.671">
  <path class="svg-icon-color" d="M37.655,0H.373A.352.352,0,0,0,0,.373V14.54a.352.352,0,0,0,.373.373H2.5v3.5a.352.352,0,0,0,.373.373H8.053v9.358H4.437a.352.352,0,0,0-.373.373v5.108A.352.352,0,0,0,4.437,34H8.053v9.358H8.09c.447,1.827,7.27,2.312,10.961,2.312s10.514-.485,10.961-2.312h.037V34h3.616a.352.352,0,0,0,.373-.373v-5.07a.352.352,0,0,0-.373-.373H30.05V18.828h5.182a.352.352,0,0,0,.373-.373V14.913H37.73a.352.352,0,0,0,.373-.373V.373A.473.473,0,0,0,37.655,0ZM13.72,14.167V.746H25.949V14.167ZM.746.746H12.974V14.167H.746Zm18.268,44.18c-6.6,0-10.215-1.156-10.215-1.752v-4.1H29.267v4.1C29.229,43.769,25.613,44.925,19.014,44.925Zm10.215-6.6H8.8V34H29.267v4.325Zm3.989-5.07H4.809V28.931H33.256v4.325Zm-3.989-5.07H8.8V18.828H29.267v9.358Zm5.555-10.1H3.244V14.913H34.822v3.169Zm2.5-3.915H26.694V.746H37.282Z" transform="translate(0.5 0.5)"/>
</symbol>

<!-- Трубные соединения -->
<symbol id="svg-icon-11" viewBox="0 0 62.3 46.671">
  <g id="Group_312" data-name="Group 312" transform="translate(-0.027)">
    <path class="svg-icon-color" d="M21.1,50.9" transform="translate(-11.524 -27.836)"/>
    <path class="svg-icon-color" d="M25.98,9.759h-2.9a.68.68,0,0,1,0-1.359h2.9a.68.68,0,1,1,0,1.359Z" transform="translate(-12.235 -4.594)"/>
    <path  class="svg-icon-color" d="M25.98,91.659h-2.9a.68.68,0,0,1,0-1.359h2.9a.68.68,0,1,1,0,1.359Z" transform="translate(-12.235 -49.383)"/>
    <path  class="svg-icon-color" d="M19.472,46.87c-.861,0-1.722-.725-2.447-6.027A108.647,108.647,0,0,1,16.3,27.658a108.647,108.647,0,0,1,.725-13.186C17.75,9.125,18.611,8.4,19.472,8.4V9.759a.2.2,0,0,0,.136-.045c-.816.634-1.948,7.386-1.948,17.9s1.178,17.264,1.948,17.9a.456.456,0,0,0-.136-.045Z" transform="translate(-8.899 -4.594)"/>
    <path  class="svg-icon-color" d="M8.4,47.8H2.416a.607.607,0,0,1-.589-.362c-.181-.317-3.987-7.658.045-13.594,3.58-5.211,0-12.1-.045-12.144a.884.884,0,0,1,0-.68.615.615,0,0,1,.589-.317H8.4a.68.68,0,0,1,0,1.359H3.5c.952,2.266,2.719,7.884-.5,12.6-3.127,4.577-.816,10.331-.136,11.826H8.443A.659.659,0,1,1,8.4,47.8Z" transform="translate(0 -11.32)"/>
    <path  class="svg-icon-color" d="M119.676,48.692h-9.7a.68.68,0,1,1,0-1.359h8.609c-.952-2.175-2.673-7.476.544-11.872,3.081-4.259.816-9.7.136-11.1h-8.745a.68.68,0,0,1,0-1.359h9.153a.707.707,0,0,1,.589.362c.181.272,4.033,7.3-.045,12.914-3.534,4.894,0,11.373.045,11.419a.617.617,0,0,1,0,.68A.775.775,0,0,1,119.676,48.692Z" transform="translate(-59.759 -12.578)"/>
    <path  class="svg-icon-color" d="M51.937,46.671c-3.987,0-5.437-13.956-5.437-23.336S47.95,0,51.937,0s5.437,13.956,5.437,23.336S55.925,46.671,51.937,46.671Zm0-45.312c-1.677,0-4.078,8.564-4.078,21.976s2.4,21.976,4.078,21.976,4.078-8.564,4.078-21.976S53.614,1.359,51.937,1.359Z" transform="translate(-25.415)"/>
    <path  class="svg-icon-color" d="M55.992,48.65c-.816,0-1.45-.77-1.948-4.441a76.8,76.8,0,0,1-.544-9.334,68.6,68.6,0,0,1,.544-9.334c.5-3.67,1.133-4.441,1.948-4.441s1.45.77,1.948,4.441a76.8,76.8,0,0,1,.544,9.334,76.8,76.8,0,0,1-.544,9.334C57.442,47.879,56.808,48.65,55.992,48.65Zm0-25.783c-.5,1.45-1.087,5.755-1.087,12.008s.589,10.6,1.087,12.008c.5-1.45,1.087-5.755,1.087-12.008S56.491,24.272,55.992,22.867Z" transform="translate(-29.243 -11.539)"/>
    <rect class="svg-icon-color" width="9.833" height="1.359" transform="translate(16.916 45.312)"/>
    <rect class="svg-icon-color" width="9.833" height="1.359" transform="translate(16.916)"/>
    <path  class="svg-icon-color" d="M31.336,46.671c-3.9,0-5.936-11.736-5.936-23.336S27.439,0,31.336,0V1.359c-1.9,0-4.577,8.383-4.577,21.976s2.628,21.976,4.577,21.976Z" transform="translate(-13.876)"/>
    <path  class="svg-icon-color" d="M102.937,47.684c-3.58,0-5.437-9.289-5.437-18.442S99.358,10.8,102.937,10.8c2.13,0,3.262,1.631,4.123,6.072l-1.314.272c-.906-4.577-1.812-4.984-2.764-4.984-1.722,0-4.078,6.48-4.078,17.083s2.356,17.083,4.078,17.083c.952,0,1.9,0,2.809-5.12l1.359.227C106.291,46.1,105.248,47.684,102.937,47.684Z" transform="translate(-53.306 -5.906)"/>
    <rect class="svg-icon-color" width="6.887" height="1.359" transform="translate(43.288 40.418)"/>
    <rect class="svg-icon-color" width="6.887" height="1.359" transform="translate(43.288 4.894)"/>
    <rect class="svg-icon-color" width="3.625" height="1.359" transform="translate(36.355 10.467)"/>
    <rect class="svg-icon-color" width="3.625" height="1.359" transform="translate(36.355 34.754)"/>
    <path  class="svg-icon-color" d="M89.547,47.684c-3.489,0-5.347-9.289-5.347-18.442S86.012,10.8,89.547,10.8v1.359c-1.677,0-3.987,6.48-3.987,17.083s2.311,17.083,3.987,17.083Z" transform="translate(-46.033 -5.906)"/>
    <path  class="svg-icon-color" d="M77.8,48.737c-2.809,0-2.9-11.555-2.9-12.869S74.991,23,77.8,23v1.359c.045,0,.091,0,.091-.045-.544.362-1.631,4.259-1.631,11.555s1.087,11.192,1.631,11.555a.158.158,0,0,0-.091-.045Z" transform="translate(-40.947 -12.578)"/>
    <path  class="svg-icon-color" d="M108.42,48.737c-.77,0-1.314-.68-1.767-4.169a68.7,68.7,0,0,1-.453-8.7,78.359,78.359,0,0,1,.453-8.7c.453-3.489,1-4.169,1.767-4.169v1.359a.574.574,0,0,0,.272-.091c-.5.544-1.178,4.894-1.178,11.6s.68,11.056,1.178,11.6a.383.383,0,0,0-.272-.091Z" transform="translate(-58.064 -12.578)"/>
  </g>
</symbol>

</svg>