<svg xmlns="http://www.w3.org/2000/svg" viewBox="0 0 41.486 56.669"><defs><style>.a{fill:#48c1fe;}</style></defs><g transform="translate(-68.588)"><g transform="translate(68.588)"><g transform="translate(0)"><path class="a" d="M103.713,37.591H97.9V34.125a14.09,14.09,0,0,0,5.531-11.192V18.628c.984-5,.556-8.678-1.274-10.942a5.714,5.714,0,0,0-3.151-2c0-.721,0-2.132,0-4.823a.83.83,0,0,0-.83-.83c-.669,0-1.355-.008-2.081-.016C95.345.009,94.565,0,93.776,0,87.77,0,81.714.565,78.1,4.664c-2.725,3.087-3.665,7.667-2.873,14,0,.006,0,.011,0,.016v4.25a14.089,14.089,0,0,0,5.532,11.192v3.466H74.949a6.368,6.368,0,0,0-6.361,6.361s0,0,0,.006v4.419a.83.83,0,0,0,1.659,0V43.952s0,0,0,0a4.707,4.707,0,0,1,4.7-4.7h6.387l3.041,2.027,2.985,2.985-1,10.746H77.992v-5.47a.83.83,0,0,0-1.659,0v5.47H70.248V51.7a.83.83,0,0,0-1.659,0v4.136s0,0,0,.006a.831.831,0,0,0,.83.83h39.826a.83.83,0,0,0,.83-.83V43.952A6.368,6.368,0,0,0,103.713,37.591ZM79.34,5.762c3.183-3.606,8.819-4.1,14.436-4.1.781,0,1.556.009,2.305.017.436,0,.857.01,1.27.013,0,4.085,0,4.709,0,4.709a.823.823,0,0,0,.811.829A3.9,3.9,0,0,1,100.9,8.76c1.179,1.485,1.613,3.914,1.285,7.1l-1.25-2.5a.83.83,0,0,0-.994-.419c-.074.024-7.5,2.375-11.819,2.375A17.588,17.588,0,0,1,80.1,13.026a.83.83,0,0,0-1.1.21l-2.336,3.115C76.367,11.609,77.247,8.133,79.34,5.762ZM76.886,22.933V18.827L79.9,14.811a18.73,18.73,0,0,0,8.22,2.168c3.828,0,9.658-1.648,11.643-2.245l2.016,4.031v4.168A12.459,12.459,0,0,1,89.5,35.377a.84.84,0,0,0-.336,0A12.46,12.46,0,0,1,76.886,22.933Zm19.36,12.29v2.754L93.6,39.739l-3.441-.86V37.013A14,14,0,0,0,96.245,35.223ZM82.417,37.977V35.223a14,14,0,0,0,6.084,1.79v1.866l-3.441.86Zm4.112,3.106,2.8-.7,2.8.7-2.04,2.04H88.569Zm1.5,13.926.952-10.227h.7l.952,10.227h-2.6Zm20.386,0H92.3l-1-10.746,2.985-2.985,3.041-2.028h6.387a4.707,4.707,0,0,1,4.7,4.7V55.009Z" transform="translate(-68.588)"/></g></g><g transform="translate(94.033 43.178)"><g transform="translate(0)"><path class="a" d="M309.267,392.322h-2.489v-1.383a.83.83,0,0,0-.83-.83h-3.319a.83.83,0,0,0-.83.83v1.383h-2.489a.83.83,0,0,0-.83.83v5.531a.83.83,0,0,0,.83.83h9.957a.83.83,0,0,0,.83-.83v-5.531A.83.83,0,0,0,309.267,392.322Zm-5.808-.553h1.659v.553h-1.659Zm4.978,6.085h-8.3v-3.872h8.3Z" transform="translate(-298.481 -390.109)"/></g></g></g></svg>