<svg xmlns="http://www.w3.org/2000/svg" viewBox="0 0 44.108 51.908"><defs><style>.a{fill:#48c1fe;}</style></defs><g transform="translate(-30.433)"><g transform="translate(30.433 0)"><path class="a" d="M74.394,43.195,66.807,29.867a2.137,2.137,0,0,0,1.179-2.1l-.564-4.716,3.229-3.383a2.111,2.111,0,0,0,.051-2.819l-3.229-3.486L68.14,8.6A2.121,2.121,0,0,0,66.5,6.34l-4.664-.923L59.58,1.265A2.017,2.017,0,0,0,56.966.292h-.051l-4.306,2L48.406.24a2,2,0,0,0-2.717.82L43.382,5.212l-4.664.82a2.1,2.1,0,0,0-1.692,2.307l.564,4.716-3.229,3.383a2.111,2.111,0,0,0-.051,2.819l3.229,3.486-.666,4.767a2.111,2.111,0,0,0,1.333,2.153L30.568,43.195a1.044,1.044,0,0,0,0,1.025,1.057,1.057,0,0,0,.871.513h8.2l3.742,6.51a1.057,1.057,0,0,0,.871.513.992.992,0,0,0,.871-.513l7.33-12.507L59.785,51.4a1.057,1.057,0,0,0,.871.513.992.992,0,0,0,.871-.513l3.742-6.664h8.2a.992.992,0,0,0,.871-.513A.848.848,0,0,0,74.394,43.195ZM44.305,48.679l-3.178-5.485a1.057,1.057,0,0,0-.871-.513H33.182l7.074-12.507,2.922.513,2.255,4.152a2.017,2.017,0,0,0,2.614.974H48.1l2.1-.974,1.025,1.794Zm2.973-14.711h-.051l-2.255-4.254a1.913,1.913,0,0,0-1.435-.974l-4.716-.871.666-4.716a2,2,0,0,0-.513-1.692L35.8,17.976l3.229-3.383a1.925,1.925,0,0,0,.564-1.692l-.564-4.664a.159.159,0,0,1,.051-.1l4.664-.82a2.075,2.075,0,0,0,1.435-1.025l2.307-4.152,4.2,2.05a1.961,1.961,0,0,0,1.845,0l4.254-1.948h.051l2.255,4.254a1.917,1.917,0,0,0,1.384.974l4.664.923-.666,4.716a2,2,0,0,0,.513,1.692l3.229,3.486-3.281,3.383a1.925,1.925,0,0,0-.564,1.692l.564,4.716-4.613.769a2.075,2.075,0,0,0-1.435,1.025l-2.307,4.152-4.2-2.05a1.961,1.961,0,0,0-1.845,0Zm17.428,8.714a.992.992,0,0,0-.871.513l-3.178,5.638L53.429,36.326a.826.826,0,0,0-.205-.359l-1.128-2,.359-.154,4.2,2.05a2.109,2.109,0,0,0,2.717-.82l2.307-4.152,3.075-.564,7.022,12.353Z" transform="translate(-30.433 0)"/><path class="a" d="M142.791,71.327A10.252,10.252,0,1,0,132.54,81.578,10.282,10.282,0,0,0,142.791,71.327Zm-10.252,8.2a8.2,8.2,0,1,1,8.2-8.2A8.225,8.225,0,0,1,132.54,79.528Z" transform="translate(-110.517 -53.249)"/></g></g></svg>